<?xml version="1.0" encoding="utf-8"?>
<!-- Generator: Adobe Illustrator 27.1.1, SVG Export Plug-In . SVG Version: 6.00 Build 0)  -->
<svg version="1.1" id="Layer_1" xmlns="http://www.w3.org/2000/svg" xmlns:xlink="http://www.w3.org/1999/xlink" x="0px" y="0px"
	 viewBox="0 0 110.4 110.4" style="enable-background:new 0 0 110.4 110.4;" xml:space="preserve">
<style type="text/css">
	.st0{fill:url(#SVGID_1_);}
	.st1{fill:url(#SVGID_00000091005716417350289470000015555422322308692129_);}
	.st2{fill:url(#SVGID_00000111901096222903653560000003293060164144407963_);}
	.st3{fill:url(#SVGID_00000010274729993144158680000004018107279485658510_);}
	.st4{fill:#EA3700;}
</style>
<g>
	<radialGradient id="SVGID_1_" cx="55.2018" cy="55.2018" r="55.2018" gradientUnits="userSpaceOnUse">
		<stop  offset="0" style="stop-color:#FF9955"/>
		<stop  offset="0.2627" style="stop-color:#FF8B48"/>
		<stop  offset="0.757" style="stop-color:#FF6627"/>
		<stop  offset="1" style="stop-color:#FF5215"/>
	</radialGradient>
	<circle class="st0" cx="55.2" cy="55.2" r="55.2"/>
	<g>
		<g>
			
				<radialGradient id="SVGID_00000165202434576627130980000012040509665757670287_" cx="59.509" cy="36.9672" r="46.3257" gradientUnits="userSpaceOnUse">
				<stop  offset="0" style="stop-color:#FFFFFF"/>
				<stop  offset="0.0974" style="stop-color:#FFFCFB"/>
				<stop  offset="0.1898" style="stop-color:#FFF4F0"/>
				<stop  offset="0.2803" style="stop-color:#FFE7DD"/>
				<stop  offset="0.3696" style="stop-color:#FFD4C2"/>
				<stop  offset="0.4581" style="stop-color:#FFBC9F"/>
				<stop  offset="0.5447" style="stop-color:#FF9F75"/>
				<stop  offset="0.6018" style="stop-color:#FF8955"/>
			</radialGradient>
			<path style="fill:url(#SVGID_00000165202434576627130980000012040509665757670287_);" d="M68.38,30.48v19.81
				c0,1.81-1.47,3.28-3.28,3.28H45.3c-1.82,0-3.28-1.47-3.28-3.28V30.48c0-1.81,1.46-3.28,3.28-3.28h5.64V32h8.51V27.2h5.65
				C66.91,27.2,68.38,28.67,68.38,30.48z"/>
			
				<radialGradient id="SVGID_00000092443738766069657350000005562673012847466631_" cx="44.6918" cy="66.6015" r="46.3257" gradientUnits="userSpaceOnUse">
				<stop  offset="0" style="stop-color:#FFFFFF"/>
				<stop  offset="0.0974" style="stop-color:#FFFCFB"/>
				<stop  offset="0.1898" style="stop-color:#FFF4F0"/>
				<stop  offset="0.2803" style="stop-color:#FFE7DD"/>
				<stop  offset="0.3696" style="stop-color:#FFD4C2"/>
				<stop  offset="0.4581" style="stop-color:#FFBC9F"/>
				<stop  offset="0.5447" style="stop-color:#FF9F75"/>
				<stop  offset="0.6018" style="stop-color:#FF8955"/>
			</radialGradient>
			<path style="fill:url(#SVGID_00000092443738766069657350000005562673012847466631_);" d="M53.57,60.12v19.81
				c0,1.81-1.47,3.28-3.28,3.28H30.48c-1.82,0-3.28-1.47-3.28-3.28V60.12c0-1.81,1.46-3.28,3.28-3.28h5.64v4.79h8.51v-4.79h5.65
				C52.1,56.84,53.57,58.31,53.57,60.12z"/>
			
				<radialGradient id="SVGID_00000098939322882787478630000016359633756611658641_" cx="74.3261" cy="66.6015" r="46.3257" gradientUnits="userSpaceOnUse">
				<stop  offset="0" style="stop-color:#FFFFFF"/>
				<stop  offset="0.0974" style="stop-color:#FFFCFB"/>
				<stop  offset="0.1898" style="stop-color:#FFF4F0"/>
				<stop  offset="0.2803" style="stop-color:#FFE7DD"/>
				<stop  offset="0.3696" style="stop-color:#FFD4C2"/>
				<stop  offset="0.4581" style="stop-color:#FFBC9F"/>
				<stop  offset="0.5447" style="stop-color:#FF9F75"/>
				<stop  offset="0.6018" style="stop-color:#FF8955"/>
			</radialGradient>
			<path style="fill:url(#SVGID_00000098939322882787478630000016359633756611658641_);" d="M83.2,60.12v19.81
				c0,1.81-1.47,3.28-3.28,3.28H60.12c-1.82,0-3.28-1.47-3.28-3.28V60.12c0-1.81,1.46-3.28,3.28-3.28h5.64v4.79h8.51v-4.79h5.65
				C81.73,56.84,83.2,58.31,83.2,60.12z"/>
		</g>
		<rect x="50.94" y="27.2" class="st4" width="8.51" height="4.79"/>
		<rect x="65.76" y="56.84" class="st4" width="8.51" height="4.79"/>
		<rect x="36.13" y="56.84" class="st4" width="8.51" height="4.79"/>
	</g>
</g>
</svg>
