<?xml version="1.0" encoding="utf-8"?>
<!-- Generator: Adobe Illustrator 27.2.0, SVG Export Plug-In . SVG Version: 6.00 Build 0)  -->
<svg version="1.1" id="Layer_1" xmlns="http://www.w3.org/2000/svg" xmlns:xlink="http://www.w3.org/1999/xlink" x="0px" y="0px"
	 viewBox="0 0 35 35" style="enable-background:new 0 0 35 35;" xml:space="preserve">
<style type="text/css">
	.st0{fill:#272727;}
</style>
<g id="Group_4492_00000109736874702702782800000014176114297528819378_" transform="translate(-12427 -1271)">
	<g id="Group_4294_00000048491602550682376730000010635375762233286800_" transform="translate(12427 1271)">
		<g id="Group_4293_00000107585794672492227520000010887082310546755771_" transform="translate(0)">
			<path class="st0" d="M31.87,0H3.13C1.4,0,0,1.4,0,3.13v28.74C0,33.6,1.4,35,3.12,35h11.43c2.68,0,5.24-1.06,7.13-2.95
				l10.37-10.38c1.89-1.89,2.95-4.45,2.95-7.12V3.13C35,1.4,33.6,0,31.87,0z M4.54,4.8c0-0.15,0.11-0.26,0.25-0.26h11.57
				c0.14,0,0.25,0.11,0.25,0.26v2.51c0,0.14-0.11,0.25-0.25,0.25H4.79c-0.14,0-0.25-0.11-0.25-0.25V4.8z M4.54,12.36
				c0-0.14,0.11-0.26,0.25-0.26h13.32c0.14,0,0.26,0.12,0.26,0.26v2.51c0,0.15-0.12,0.26-0.26,0.26v-0.01H4.79
				c-0.14,0-0.25-0.11-0.25-0.25V12.36z M14.9,29.22h-2.38v2.38h-1.47v-2.38H8.67v-1.47h2.38v-2.38h1.47v2.38h2.38V29.22z
				 M23.51,22.43c0,0.14-0.12,0.26-0.26,0.26v-0.01H4.79c-0.14,0-0.25-0.11-0.25-0.25v-2.51c0-0.14,0.11-0.26,0.25-0.26h18.46
				c0.14,0,0.26,0.12,0.26,0.26V22.43z M28.58,15.8c-0.56,0.53-1.28,0.84-2.05,0.88v0.82c0,0.31-0.25,0.57-0.56,0.57
				c-0.32,0-0.57-0.26-0.57-0.57v-0.81c-0.82-0.05-1.59-0.41-2.16-1.01c-0.31-0.35-0.52-0.77-0.63-1.21
				c-0.11-0.47,0.18-0.93,0.64-1.04c0.29-0.07,0.6,0.02,0.81,0.24c0.1,0.1,0.18,0.24,0.22,0.39c0.06,0.27,0.19,0.53,0.38,0.74
				c0.33,0.34,0.8,0.52,1.28,0.49c0.44,0.03,0.88-0.11,1.23-0.39c0.28-0.27,0.44-0.65,0.42-1.04c0.01-0.37-0.12-0.73-0.38-1
				c-0.37-0.32-0.81-0.57-1.28-0.7c-0.48-0.17-0.94-0.36-1.39-0.59c-1.04-0.47-1.69-1.5-1.67-2.64C22.84,8.22,23.1,7.52,23.59,7
				c0.52-0.53,1.21-0.85,1.94-0.9V5.11c0-0.31,0.25-0.56,0.57-0.56c0.01,0,0.01,0,0.02,0c0.31,0,0.55,0.25,0.55,0.56h0.01v1
				c0.75,0.08,1.44,0.45,1.91,1.04c0.28,0.37,0.47,0.79,0.57,1.24c0.1,0.47-0.2,0.92-0.66,1.02c-0.46,0.1-0.92-0.2-1.02-0.66
				c-0.06-0.27-0.17-0.52-0.34-0.74c-0.26-0.34-0.66-0.53-1.09-0.52c-0.39-0.02-0.77,0.12-1.06,0.38c-0.27,0.28-0.41,0.67-0.38,1.06
				c-0.02,0.37,0.11,0.73,0.37,0.99c0.38,0.32,0.82,0.56,1.29,0.71c0.49,0.17,0.97,0.37,1.43,0.61c0.32,0.18,0.62,0.4,0.88,0.65
				c0.23,0.25,0.42,0.53,0.54,0.85c0.14,0.35,0.2,0.73,0.2,1.11C29.35,14.58,29.08,15.28,28.58,15.8z"/>
		</g>
	</g>
</g>
</svg>
