<svg xmlns="http://www.w3.org/2000/svg" xmlns:xlink="http://www.w3.org/1999/xlink" width="110.404" height="110.404" data-name="Group 1218"><defs><clipPath id="b"><circle cx="55.202" cy="55.202" r="55.202" fill="none" data-name="Ellipse 30"/></clipPath><clipPath id="d"><path fill="none" d="M34.6 64.131a2.048 2.048 0 0 1 2.049-2.049h13.074a2.042 2.042 0 1 1 0 4.084H36.65a2.046 2.046 0 0 1-2.05-2.035m0-10.688a2.048 2.048 0 0 1 2.05-2.043h13.073a2.048 2.048 0 1 1 0 4.1H36.65a2.048 2.048 0 0 1-2.05-2.057m0-10.674a2.048 2.048 0 0 1 2.049-2.048h21.659a2.048 2.048 0 1 1 0 4.1H36.65a2.048 2.048 0 0 1-2.05-2.052M42.337 27.2a4.356 4.356 0 0 0-3.086 1.279L28.482 39.251a4.357 4.357 0 0 0-1.28 3.087v28.909a4.36 4.36 0 0 0 4.353 4.353h23.72V56.61a5.843 5.843 0 0 1 1.847-4.245l9.555-8.734a5.422 5.422 0 0 1 1.079-.767V31.555A4.36 4.36 0 0 0 63.4 27.2Z" data-name="Path 285"/></clipPath><clipPath id="e"><path fill="none" d="M67.566 52.538a3.069 3.069 0 1 1 3.011 3.626 3.059 3.059 0 0 1-3.011-3.626m.926-6.911-9.518 8.706a3.091 3.091 0 0 0-1 2.282V80.11a3.092 3.092 0 0 0 3.087 3.09H80.11a3.091 3.091 0 0 0 3.09-3.09V56.616a3.089 3.089 0 0 0-1.006-2.283l-9.531-8.708a3.091 3.091 0 0 0-4.172 0" data-name="Path 286"/></clipPath><clipPath id="g"><path fill="none" d="M0 0h110.404v110.404H0z" data-name="Rectangle 2514"/></clipPath><radialGradient id="c" cx=".5" cy=".5" r=".5" gradientTransform="matrix(1 0 0 -1 0 2)" gradientUnits="objectBoundingBox"><stop offset="0" stop-color="#ff7f86"/><stop offset=".192" stop-color="#ff707e"/><stop offset=".56" stop-color="#ff496a"/><stop offset=".995" stop-color="#ff154f"/><stop offset="1" stop-color="#ff154f"/></radialGradient><radialGradient id="a" cx=".5" cy=".5" r=".645" gradientTransform="matrix(1.193 0 0 -1 .13 3.438)" gradientUnits="objectBoundingBox"><stop offset="0" stop-color="#fff"/><stop offset=".347" stop-color="#fffcfc"/><stop offset=".559" stop-color="#fff3f5"/><stop offset=".736" stop-color="#ffe5e8"/><stop offset=".891" stop-color="#ffd1d6"/><stop offset=".995" stop-color="#ffbfc6"/><stop offset="1" stop-color="#ffbfc6"/></radialGradient><radialGradient xlink:href="#a" id="f" cx=".49" cy=".542" r=".511" gradientTransform="matrix(1.521 0 0 -1.146 1.198 3.666)"/></defs><g data-name="Group 1211"><g clip-path="url(#b)" data-name="Group 1210"><path fill="url(#c)" d="M0 0h110.404v110.404H0z" data-name="Rectangle 2511"/></g></g><g data-name="Group 1213"><g clip-path="url(#d)" data-name="Group 1212"><path fill="url(#a)" d="M0 0h40.554v48.397H0z" data-name="Rectangle 2512" transform="translate(27.202 27.203)"/></g></g><g data-name="Group 1215"><g clip-path="url(#e)" data-name="Group 1214"><path fill="url(#f)" d="M0 0h25.232v38.386H0z" data-name="Rectangle 2513" transform="translate(57.969 44.816)"/></g></g><g data-name="Group 1217"><g clip-path="url(#g)" data-name="Group 1216"><path fill="#ba0012" d="M69.484 71.929a.44.44 0 0 1-.434-.45 5.585 5.585 0 0 1 .35-1.869 4.739 4.739 0 0 1 1.293-1.7 6.673 6.673 0 0 0 1.252-1.364 2.138 2.138 0 0 0 .312-1.109q0-1.758-1.621-1.76a1.639 1.639 0 0 0-1.232.475 1.7 1.7 0 0 0-.446.919.443.443 0 0 1-.426.387h-2.173a.434.434 0 0 1-.434-.458 3.851 3.851 0 0 1 1.262-2.648 5.92 5.92 0 0 1 6.864-.057 3.79 3.79 0 0 1 1.216 3.01 3.653 3.653 0 0 1-.395 1.67 6.849 6.849 0 0 1-1.381 1.743l-.843.8a2.852 2.852 0 0 0-.9 1.779l-.042.634Zm-.743 3.186a1.511 1.511 0 0 1 .473-1.145 1.853 1.853 0 0 1 2.421 0 1.616 1.616 0 0 1 .011 2.274 1.9 1.9 0 0 1-2.443 0 1.5 1.5 0 0 1-.462-1.129" data-name="Path 287"/></g></g></svg>