<svg xmlns="http://www.w3.org/2000/svg" viewBox="0 0 110.4 110.4"><defs><radialGradient id="a" cx=".5" cy=".5" r=".5" gradientUnits="objectBoundingBox"><stop offset="0" stop-color="#55a6ff"/><stop offset="1" stop-color="#2a7fff"/></radialGradient><radialGradient id="b" cx=".3" cy=".5" r=".7" gradientTransform="matrix(.99 0 0 1 0 0)" gradientUnits="objectBoundingBox"><stop offset="0" stop-color="#fff"/><stop offset=".5" stop-color="#fdfeff"/><stop offset=".6" stop-color="#f6fbff"/><stop offset=".7" stop-color="#eaf6ff"/><stop offset=".8" stop-color="#d9efff"/><stop offset=".9" stop-color="#c3e5ff"/><stop offset="1" stop-color="#a9dbff"/></radialGradient><radialGradient id="c" cx=".5" cy=".4" r=".9" gradientUnits="objectBoundingBox"><stop offset="0" stop-color="#fff"/><stop offset=".3" stop-color="#fbfdff"/><stop offset=".5" stop-color="#f1f9ff"/><stop offset=".6" stop-color="#e0f2ff"/><stop offset=".8" stop-color="#c9e8ff"/><stop offset="1" stop-color="#aadbff"/><stop offset="1" stop-color="#a9dbff"/></radialGradient><radialGradient id="d" cx=".3" cy=".7" r="1" gradientTransform="matrix(1.01 0 0 1 0 0)" gradientUnits="objectBoundingBox"><stop offset="0" stop-color="#fff"/><stop offset=".2" stop-color="#fbfdff"/><stop offset=".4" stop-color="#eff8ff"/><stop offset=".6" stop-color="#dcf0ff"/><stop offset=".8" stop-color="#c2e5ff"/><stop offset="1" stop-color="#a9dbff"/></radialGradient><radialGradient id="e" cx=".4" cy=".3" r="1" gradientUnits="objectBoundingBox"><stop offset="0" stop-color="#fff"/><stop offset=".3" stop-color="#fbfdff"/><stop offset=".5" stop-color="#f1f9ff"/><stop offset=".6" stop-color="#e1f2ff"/><stop offset=".8" stop-color="#c9e8ff"/><stop offset="1" stop-color="#abdcff"/><stop offset="1" stop-color="#a9dbff"/></radialGradient><radialGradient id="f" cx=".5" cy=".6" r=".7" gradientUnits="objectBoundingBox"><stop offset="0" stop-color="#fff"/><stop offset=".4" stop-color="#fcfeff"/><stop offset=".6" stop-color="#f4faff"/><stop offset=".7" stop-color="#e7f5ff"/><stop offset=".8" stop-color="#d4edff"/><stop offset=".9" stop-color="#bce3ff"/><stop offset="1" stop-color="#a9dbff"/></radialGradient><radialGradient id="g" cx=".7" cy=".7" r="1.7" gradientTransform="matrix(.471 0 0 1 0 0)" gradientUnits="objectBoundingBox"><stop offset="0" stop-color="#fff"/><stop offset=".3" stop-color="#fcfdff"/><stop offset=".5" stop-color="#f3faff"/><stop offset=".7" stop-color="#e3f3ff"/><stop offset=".8" stop-color="#ceeaff"/><stop offset="1" stop-color="#b2deff"/><stop offset="1" stop-color="#a9dbff"/></radialGradient></defs><g data-name="Group 960" transform="translate(-689 -329)"><circle cx="55.2" cy="55.2" r="55.2" fill="url(#a)" data-name="Ellipse 6" transform="translate(689 329)"/><g data-name="Group 959"><path fill="url(#b)" d="M749 368a17 17 0 0 1 10 8l8-9a28 28 0 0 0-18-11 1 1 0 0 0-1 1v10a1 1 0 0 0 1 1Z" data-name="Path 20"/><path fill="url(#c)" d="m736 370 7 6a1 1 0 0 0 2-1v-18a1 1 0 0 0-1-1h-19a1 1 0 0 0-1 2l4 3Z" data-name="Path 21"/><path fill="url(#d)" d="M718 381h9a1 1 0 0 0 2-1 17 17 0 0 1 7-10l-8-9a28 28 0 0 0-11 18 1 1 0 0 0 1 2Z" data-name="Path 22"/><path fill="url(#e)" d="m730 392 7-6a1 1 0 0 0-1-2h-18a1 1 0 0 0-1 1v18a1 1 0 0 0 2 1l7-7 4-5Z" data-name="Path 23"/><path fill="url(#f)" d="m771 364-19 18a1 1 0 0 0 1 2h19a1 1 0 0 0 1-1v-19a1 1 0 0 0-2 0Z" data-name="Path 24"/><path fill="url(#g)" d="M757 396a1 1 0 0 0-2 0 16 16 0 0 1-25-4l-4 5-4 4a28 28 0 0 0 41 4 1 1 0 0 0 1-2Z" data-name="Path 25"/></g></g></svg>