<svg xmlns="http://www.w3.org/2000/svg" xmlns:xlink="http://www.w3.org/1999/xlink" width="110.404" height="110.404" viewBox="0 0 110.404 110.404">
  <defs>
    <radialGradient id="radial-gradient" cx="0.5" cy="0.5" r="0.5" gradientUnits="objectBoundingBox">
      <stop offset="0" stop-color="#7f8bff"/>
      <stop offset="1" stop-color="#3f5cff"/>
    </radialGradient>
    <radialGradient id="radial-gradient-2" cx="0.623" cy="0.643" r="1.914" gradientUnits="objectBoundingBox">
      <stop offset="0" stop-color="#fff"/>
      <stop offset="1" stop-color="#7f8bff"/>
    </radialGradient>
    <radialGradient id="radial-gradient-3" cx="0.664" cy="0.336" r="1.563" gradientTransform="translate(0 -0.229) scale(1 1.458)" gradientUnits="objectBoundingBox">
      <stop offset="0" stop-color="#fff"/>
      <stop offset="0.379" stop-color="#ced3ff"/>
      <stop offset="1" stop-color="#7f8bff"/>
    </radialGradient>
    <radialGradient id="radial-gradient-4" cx="0.5" cy="0.5" r="2.199" gradientTransform="translate(0 0.01) scale(1 0.98)" xlink:href="#radial-gradient-2"/>
    <radialGradient id="radial-gradient-5" cx="0.5" cy="0.5" r="1.914" xlink:href="#radial-gradient-2"/>
    <radialGradient id="radial-gradient-6" cx="0.695" cy="0.634" r="2.122" gradientTransform="translate(0 -0.031) scale(1 1.049)" xlink:href="#radial-gradient-2"/>
    <radialGradient id="radial-gradient-7" cx="0.669" cy="0.61" r="1.307" gradientTransform="translate(0 -0.334) scale(1 1.548)" gradientUnits="objectBoundingBox">
      <stop offset="0" stop-color="#fff"/>
      <stop offset="0.132" stop-color="#eef0ff"/>
      <stop offset="1" stop-color="#7f8bff"/>
    </radialGradient>
  </defs>
  <g id="Group_6190" data-name="Group 6190" transform="translate(-4989 171)">
    <circle id="Ellipse_2442" data-name="Ellipse 2442" cx="55.202" cy="55.202" r="55.202" transform="translate(4989 -171)" fill="url(#radial-gradient)"/>
    <path id="Path_3443" data-name="Path 3443" d="M34.762,37.272A10.071,10.071,0,1,0,44.833,27.2,10.07,10.07,0,0,0,34.762,37.272" transform="translate(4989 -171)" fill="url(#radial-gradient-2)"/>
    <path id="Path_3444" data-name="Path 3444" d="M27.228,65.5a2.316,2.316,0,0,0,2.264,2.678H46.627a18.62,18.62,0,0,1,5.3-2.9,12,12,0,0,1-5.68-10.189,11.853,11.853,0,0,1,.906-4.566,18.764,18.764,0,0,0-2.322-.151A17.8,17.8,0,0,0,27.228,65.5" transform="translate(4989 -171)" fill="url(#radial-gradient-3)"/>
    <path id="Path_3445" data-name="Path 3445" d="M61.177,43.466a11.951,11.951,0,0,1,9.039,11.322,8.235,8.235,0,1,0-9.039-11.322" transform="translate(4989 -171)" fill="url(#radial-gradient-4)"/>
    <path id="Path_3446" data-name="Path 3446" d="M64.536,65.278a19.337,19.337,0,0,1,9.02,6.679h7.775a1.891,1.891,0,0,0,1.85-2.189,14.562,14.562,0,0,0-13.173-12.32,12.013,12.013,0,0,1-5.472,7.83" transform="translate(4989 -171)" fill="url(#radial-gradient-5)"/>
    <path id="Path_3447" data-name="Path 3447" d="M49.081,55.089a9.162,9.162,0,1,0,9.152-9.169,9.148,9.148,0,0,0-9.152,9.169" transform="translate(4989 -171)" fill="url(#radial-gradient-6)"/>
    <path id="Path_3448" data-name="Path 3448" d="M42.231,80.768A2.088,2.088,0,0,0,44.287,83.2H72.2a2.11,2.11,0,0,0,2.057-2.434,16.2,16.2,0,0,0-32.024,0" transform="translate(4989 -171)" fill="url(#radial-gradient-7)"/>
  </g>
</svg>
