<svg xmlns="http://www.w3.org/2000/svg" viewBox="0 0 110.4 110.4"><defs><radialGradient id="a" cx=".5" cy=".5" r=".5" gradientUnits="objectBoundingBox"><stop offset="0" stop-color="#75c554"/><stop offset=".2" stop-color="#6dbe4a"/><stop offset=".7" stop-color="#5bae30"/><stop offset="1" stop-color="#55a927"/></radialGradient><radialGradient id="b" cx=".4" cy=".3" r="1" gradientTransform="matrix(.897 0 0 1 0 0)" gradientUnits="objectBoundingBox"><stop offset="0" stop-color="#fff"/><stop offset=".2" stop-color="#fcfffb"/><stop offset=".4" stop-color="#f6fff2"/><stop offset=".6" stop-color="#eaffe1"/><stop offset=".7" stop-color="#daffc9"/><stop offset=".9" stop-color="#c6ffab"/><stop offset="1" stop-color="#b1ff8d"/></radialGradient></defs><g data-name="Group 963" transform="translate(-548 -329)"><circle cx="55.2" cy="55.2" r="55.2" fill="url(#a)" data-name="Ellipse 7" transform="translate(548 329)"/><g data-name="Group 962"><path fill="url(#b)" d="M632 365a3 3 0 0 0-3-3h-45a8 8 0 0 0-8 8v34a8 8 0 0 0 8 8h36a8 8 0 0 0 8-8v-22a8 8 0 0 0-8-9h-36a3 3 0 0 1-3-3 3 3 0 0 1 3-3h45a3 3 0 0 0 3-2Z" data-name="Path 26"/><path fill="#38840c" d="M620 387h10a2 2 0 0 1 2 1v8a2 2 0 0 1-2 1h-10a5 5 0 0 1-5-5 5 5 0 0 1 5-5Z" data-name="Rectangle 1739"/><circle cx="2.3" cy="2.3" r="2.3" fill="#fff" data-name="Ellipse 8" transform="translate(617 390)"/><path fill="#38840c" d="m618 370-2 3h-29l6-6 6-6 5-5a1 1 0 0 1 2 0l5 5 6 6 1 2a1 1 0 0 1 0 1Z" data-name="Path 27"/><g data-name="Group 961" opacity=".4"><path fill="#38840c" d="M605 395a2 2 0 0 0-1-1 4 4 0 0 0-1-1 11 11 0 0 1-2-1 3 3 0 0 1-1-3 3 3 0 0 1 0-2 3 3 0 0 1 3-1v-1a1 1 0 0 1 0-1 1 1 0 0 1 1 1v1a3 3 0 0 1 2 1 3 3 0 0 1 1 2 1 1 0 0 1-1 1 1 1 0 0 1-1-1 2 2 0 0 0-1-1 1 1 0 0 0-1 0 2 2 0 0 0-1 0 2 2 0 0 0 0 1 1 1 0 0 0 0 1 4 4 0 0 0 1 1 12 12 0 0 1 2 1 4 4 0 0 1 1 1 3 3 0 0 1 1 1 3 3 0 0 1 0 1 3 3 0 0 1-1 2 4 4 0 0 1-2 1v1a1 1 0 0 1-1 1 1 1 0 0 1-1-1v-1a4 4 0 0 1-2-1 3 3 0 0 1-1-1 1 1 0 0 1 1-2 1 1 0 0 1 1 1 2 2 0 0 0 2 1 2 2 0 0 0 1 0 2 2 0 0 0 1-1Z" data-name="Path 28"/></g></g></g></svg>