<svg xmlns="http://www.w3.org/2000/svg" width="273.331" height="191.98" viewBox="0 0 273.331 191.98">
    <defs>
        <clipPath id="3xjktqqxba">
            <path data-name="Rectangle 3292" style="fill:none" d="M0 0h273.33v191.98H0z"/>
        </clipPath>
    </defs>
    <g data-name="Group 3744">
        <path data-name="Rectangle 3266" style="fill:#9599ff" d="M0 0h273.33v191.98H0z"/>
        <path data-name="Path 2534" d="M75.34 0 0 75.33v53.3L128.64 0z" style="fill:#8a93ff"/>
        <path data-name="Path 2535" d="M198.28 0 6.29 191.98h53.3L251.58 0z" style="fill:#99a1ff"/>
        <path data-name="Path 2536" d="M139.19 191.98h53.3l80.84-80.84v-53.3z" style="fill:#8a93ff"/>
        <g data-name="Group 3743">
            <g data-name="Group 3742" style="clip-path:url(#3xjktqqxba)">
                <path data-name="Path 2537" d="m166.1 115.7-30.673 10.387-4.129 3.971 8.249-1.3-18.809 25.832 27.957 11.4 18.58-13.635a23.4 23.4 0 0 0 5.5-5.706l7.814-11.5-4.55-20.812z" style="fill:#ffbf3e"/>
                <path data-name="Path 2538" d="m102.074 125.985 14.986-6.785a22.1 22.1 0 0 1 7.811-1.928l11.534-.681a11.169 11.169 0 0 1 7.324 2.188l4.153 3.089-12.456 4.218 28.6 28.651 3.252-2.384 1.45 3.564a4.807 4.807 0 0 1-2.246 6.08L140 175.686a3.547 3.547 0 0 1-3.373-.063l-41.9-23.456z" style="fill:#4848ff"/>
                <path data-name="Path 2539" d="M159.932 165.034a4.876 4.876 0 0 1-2.89-.954l-7.41-5.445a.234.234 0 0 1 .277-.378l7.41 5.445a4.393 4.393 0 0 0 4.647.365l2.283-1.18a.234.234 0 1 1 .215.416l-2.283 1.18a4.886 4.886 0 0 1-2.249.551" style="fill:#fff"/>
                <path data-name="Path 2540" d="M151.158 169.559a4.876 4.876 0 0 1-2.891-.954l-7.41-5.445a.234.234 0 0 1 .277-.378l7.411 5.445a4.4 4.4 0 0 0 4.647.365l2.282-1.18a.234.234 0 0 1 .216.416l-2.282 1.18a4.9 4.9 0 0 1-2.25.551" style="fill:#fff"/>
                <path data-name="Path 2541" d="M143.384 173.609a4.876 4.876 0 0 1-2.89-.954l-7.41-5.445a.234.234 0 0 1 .277-.378l7.411 5.445a4.392 4.392 0 0 0 4.646.365l2.284-1.18a.234.234 0 0 1 .215.416l-2.283 1.18a4.893 4.893 0 0 1-2.25.551" style="fill:#fff"/>
                <path data-name="Path 2542" d="m142.044 125.582-7.176 5.221a6.832 6.832 0 0 0-2.136 2.558l-7.553 15.648a2.053 2.053 0 0 0 1.187 2.836l.074.026a5.488 5.488 0 0 0 6.012-1.7l8.538-10.363 21.956-.859-9.008-11.667a8.621 8.621 0 0 0-11.894-1.7" style="fill:#ffbf3e"/>
                <path data-name="Path 2543" d="m112.911 166.822-1.453-.931a2.437 2.437 0 0 1-.738-3.367 3.3 3.3 0 1 1 5.558 3.56 2.437 2.437 0 0 1-3.367.738" style="fill:#ffbf3e"/>
                <path data-name="Path 2544" d="m120.556 170.565-.183-.117a2.933 2.933 0 0 1-.888-4.05l.9-1.4a3.04 3.04 0 0 1 5.12 3.28l-.9 1.4a2.931 2.931 0 0 1-4.049.887" style="fill:#ffbf3e"/>
                <path data-name="Path 2545" d="m128.005 173.464-.149-.086a2.774 2.774 0 0 1-1.016-3.789l.5-.873a2.86 2.86 0 0 1 4.954 2.859l-.505.874a2.773 2.773 0 0 1-3.788 1.015" style="fill:#ffbf3e"/>
                <path data-name="Path 2546" d="M133.928 176.037a2.483 2.483 0 0 1-1.146-3.319l.764-1.572a2.483 2.483 0 1 1 4.465 2.173l-.764 1.572a2.483 2.483 0 0 1-3.319 1.146" style="fill:#ffbf3e"/>
                <path data-name="Path 2547" d="M137.76 128.42a.234.234 0 0 1-.138-.424l2.675-1.946a.234.234 0 0 1 .276.379l-2.675 1.946a.237.237 0 0 1-.138.045" style="fill:#210602"/>
                <path data-name="Path 2548" d="M152.729 140.087H149a.234.234 0 0 1 0-.468h3.729a.234.234 0 0 1 0 .468" style="fill:#210602"/>
                <path data-name="Path 2549" d="M165.638 156.076a.237.237 0 0 1-.166-.068l-1.281-1.282a.234.234 0 0 1 .331-.331l1.282 1.281a.235.235 0 0 1-.166.4" style="fill:#fff"/>
                <path data-name="Path 2550" d="M135.634 126.219a.237.237 0 0 1-.166-.068l-1.281-1.282a.234.234 0 1 1 .331-.331l1.282 1.281a.235.235 0 0 1-.166.4" style="fill:#fff"/>
                <path data-name="Path 2551" d="m109.251 122.206-17.481-6.515-12.948 33.988 16.926 3.552z" style="fill:#7373ff"/>
                <path data-name="Path 2552" d="m91.452 116.531-8.443 22.226-.168.44-1.374 3.622a4.47 4.47 0 0 1-.209.462 4.375 4.375 0 0 1-1.568 1.713 3.429 3.429 0 0 1-.2.121l-5.851 3.285-6.576 3.692c-.031.018-.063.036-.1.052s-.068.034-.1.05a4.158 4.158 0 0 1-.534.193c-.065.02-.131.038-.2.054a5.2 5.2 0 0 1-.526.1l-.141.019a2.942 2.942 0 0 1-.49.015c-.145-.009-.3-.02-.456-.036h-.03l-.165-.018a42.664 42.664 0 0 1-7.274-1.677c-.037-.009-.073-.023-.112-.034-2.625-.826-5.588-1.91-8.8-3.2V85.792l43.068 30.567.241.17z" style="fill:#fff"/>
                <path data-name="Path 2553" d="M89.373 121.98c-1.907.173-12.456 1.675-12.456 1.675l10.833 2.585z" style="fill:#7373ff"/>
                <path data-name="Path 2554" d="m84.515 134.732-15.668 4.231H82.9z" style="fill:#7373ff"/>
                <path data-name="Path 2555" d="M82.9 139.2H63.343a.234.234 0 0 1 0-.468H82.9a.234.234 0 1 1 0 .468" style="fill:#210602"/>
                <path data-name="Path 2556" d="M87.751 126.474a.265.265 0 0 1-.055-.006l-14.046-3.352a.234.234 0 0 1 .109-.456l14.046 3.352a.234.234 0 0 1-.054.462" style="fill:#210602"/>
                <path data-name="Path 2557" d="M95.748 153.465a.262.262 0 0 1-.048 0l-16.927-3.551a.239.239 0 0 1-.158-.117.236.236 0 0 1-.013-.2l12.949-33.989a.234.234 0 0 1 .3-.136l17.481 6.515a.234.234 0 1 1-.163.439L91.9 115.991l-12.763 33.515L95.8 153a.235.235 0 0 1-.048.464" style="fill:#fff"/>
                <path data-name="Path 2558" d="m165.638 114.111 15.53-8.346 10.5 27.66-13.38 9.754z" style="fill:#fff"/>
                <path data-name="Path 2559" d="M225.182 74.813v56.357l-18.75 8.482-14.764 6.677-5-9.257-9.5-17.6-2.655-4.916-2.178-4.037-1.08-2 35.18-21.985z" style="fill:#514dff"/>
                <path data-name="Rectangle 3267" transform="rotate(-22.03 106.33 -83.48)" style="fill:#6555ff" d="M0 0h42.264v55.58H0z"/>
                <path data-name="Path 2560" d="M66.109 16.958 63.271 18.1a1.878 1.878 0 0 1-2.2-.563 5.06 5.06 0 0 0-9.04 3.663 1.88 1.88 0 0 1-1.19 1.931L48 24.274a1.913 1.913 0 0 0-1.141 2.23l.961 3.914a1.913 1.913 0 0 0 2.58 1.317l19.17-7.748a1.912 1.912 0 0 0 .936-2.735l-2.028-3.483a1.912 1.912 0 0 0-2.369-.811" style="fill:#ffb600"/>
                <path data-name="Path 2561" d="M59.843 19.49a3.006 3.006 0 1 1-3.913-1.661 3.006 3.006 0 0 1 3.913 1.661" style="fill:#fff"/>
                <path data-name="Rectangle 3268" transform="rotate(-22.007 124.679 -103.135)" style="fill:#fff" d="M0 0h4.615v.865H0z"/>
                <path data-name="Rectangle 3269" transform="rotate(-22.003 119.995 -127.336)" style="fill:#fff" d="M0 0h21.82v.865H0z"/>
                <path data-name="Rectangle 3270" transform="rotate(-22.007 137.725 -105.671)" style="fill:#fff" d="M0 0h4.615v.865H0z"/>
                <path data-name="Rectangle 3271" transform="rotate(-22.003 133.047 -129.875)" style="fill:#fff" d="M0 0h19.685v.865H0z"/>
                <path data-name="Rectangle 3272" transform="rotate(-22.007 150.774 -108.207)" style="fill:#fff" d="M0 0h4.615v.865H0z"/>
                <path data-name="Rectangle 3273" transform="rotate(-22.005 146.085 -132.398)" style="fill:#fff" d="M0 0h13.067v.865H0z"/>
                <path data-name="Rectangle 3274" transform="rotate(-22.007 163.821 -110.743)" style="fill:#fff" d="M0 0h4.615v.865H0z"/>
                <path data-name="Rectangle 3275" transform="rotate(-22.003 159.144 -134.947)" style="fill:#fff" d="M0 0h21.82v.865H0z"/>
                <path data-name="Rectangle 3276" transform="rotate(-22.007 176.87 -113.279)" style="fill:#fff" d="M0 0h4.615v.865H0z"/>
                <path data-name="Rectangle 3277" transform="rotate(-22.03 172.063 -137.31)" style="fill:#fff" d="M0 0h19.109v.866H0z"/>
                <path data-name="Rectangle 3278" transform="rotate(-22.007 189.917 -115.815)" style="fill:#fff" d="M0 0h4.615v.865H0z"/>
                <path data-name="Rectangle 3279" transform="rotate(-22.005 185.23 -140.008)" style="fill:#fff" d="M0 0h20.452v.865H0z"/>
                <path data-name="Rectangle 3280" transform="rotate(-22.007 202.963 -118.352)" style="fill:#fff" d="M0 0h4.615v.865H0z"/>
                <path data-name="Rectangle 3281" transform="rotate(-22.004 198.285 -142.553)" style="fill:#fff" d="M0 0h16.136v.865H0z"/>
                <path data-name="Rectangle 3282" transform="rotate(-22.007 216.012 -120.887)" style="fill:#fff" d="M0 0h4.615v.865H0z"/>
                <path data-name="Rectangle 3283" transform="rotate(-22.005 211.328 -145.08)" style="fill:#fff" d="M0 0h20.452v.865H0z"/>
                <path data-name="Rectangle 3284" transform="rotate(-22.007 229.059 -123.424)" style="fill:#fff" d="M0 0h4.615v.865H0z"/>
                <path data-name="Rectangle 3285" transform="rotate(-22.005 224.378 -147.617)" style="fill:#fff" d="M0 0h13.067v.865H0z"/>
                <path data-name="Path 2562" d="M105.149 64.551a11.083 11.083 0 1 1-14.428-6.123 11.083 11.083 0 0 1 14.428 6.123" style="fill:#84d329"/>
                <path data-name="Path 2563" d="M99.188 79.38a11.515 11.515 0 1 1 6.362-14.991 11.529 11.529 0 0 1-6.362 14.991m-8.305-20.551a10.65 10.65 0 1 0 13.865 5.884 10.662 10.662 0 0 0-13.865-5.884" style="fill:#fff"/>
                <path data-name="Path 2564" d="m90.012 70.267 4.743 2.013 3.616-8.518" style="fill:#84d329"/>
                <path data-name="Path 2565" d="M95.061 73.036 89.787 70.8l.45-1.062 4.213 1.788 3.39-7.988 1.062.451z" style="fill:#fff"/>
                <path data-name="Path 2566" d="M120.987 75.939V28.253l-5.442-5.442-5.31-5.31-3.845 3.844 9.155 9.156v50.877h65.935v-5.439z" style="fill:#514dff"/>
                <path data-name="Path 2567" d="M142.788 92.267a5.913 5.913 0 1 1-5.913-5.913 5.913 5.913 0 0 1 5.913 5.913" style="fill:#4848ff"/>
                <circle data-name="Ellipse 2338" cx="5.913" cy="5.913" r="5.913" transform="translate(130.962 86.354)" style="stroke:#fff;stroke-miterlimit:10;fill:none"/>
                <path data-name="Path 2568" d="M170.3 92.267a5.913 5.913 0 1 1-5.913-5.913 5.913 5.913 0 0 1 5.913 5.913" style="fill:#4848ff"/>
                <circle data-name="Ellipse 2339" cx="5.913" cy="5.913" r="5.913" transform="translate(158.475 86.354)" style="stroke:#fff;stroke-miterlimit:10;fill:none"/>
                <path data-name="Rectangle 3286" transform="translate(124.753 51.545)" style="fill:#ffc408" d="M0 0h24.234v20.612H0z"/>
                <path data-name="Rectangle 3287" transform="translate(123.57 50.3)" style="fill:#ffc408" d="M0 0h26.601v5.571H0z"/>
                <path data-name="Path 2569" d="m124.754 55.871 24.234 2.785v-2.785z" style="fill:#514dff"/>
                <path data-name="Path 2570" d="M139.331 63.426h-4.92a1.038 1.038 0 0 1-1.039-1.038v-.533a1.039 1.039 0 0 1 1.039-1.039h4.92a1.039 1.039 0 0 1 1.039 1.039v.533a1.038 1.038 0 0 1-1.039 1.038" style="fill:#514dff"/>
                <path data-name="Rectangle 3288" transform="translate(152.756 51.545)" style="fill:#ffc408" d="M0 0h24.234v20.612H0z"/>
                <path data-name="Rectangle 3289" transform="translate(151.573 50.3)" style="fill:#ffc408" d="M0 0h26.601v5.571H0z"/>
                <path data-name="Path 2571" d="m152.757 55.871 24.234 2.785v-2.785z" style="fill:#514dff"/>
                <path data-name="Path 2572" d="M167.334 63.426h-4.92a1.038 1.038 0 0 1-1.039-1.038v-.533a1.039 1.039 0 0 1 1.039-1.039h4.92a1.039 1.039 0 0 1 1.039 1.039v.533a1.038 1.038 0 0 1-1.039 1.038" style="fill:#514dff"/>
                <path data-name="Rectangle 3290" transform="translate(138.755 25.902)" style="fill:#ffc408" d="M0 0h24.234v20.612H0z"/>
                <path data-name="Rectangle 3291" transform="translate(137.572 24.657)" style="fill:#ffc408" d="M0 0h26.601v5.571H0z"/>
                <path data-name="Path 2573" d="m138.755 30.228 24.234 2.785v-2.785z" style="fill:#514dff"/>
                <path data-name="Path 2574" d="M153.332 37.784h-4.92a1.039 1.039 0 0 1-1.039-1.039v-.533a1.039 1.039 0 0 1 1.039-1.039h4.92a1.039 1.039 0 0 1 1.039 1.039v.533a1.039 1.039 0 0 1-1.039 1.039" style="fill:#514dff"/>
                <path data-name="Path 2575" d="M229.857 25.152 219.8 30.531l6.337 2.324-8.231 23.745-15.764 1.2-10.472 24.883 1.843.775 10-23.752 15.854-1.216 8.652-24.946 6.031 2.211z" style="fill:#fff"/>
            </g>
        </g>
    </g>
</svg>
