<svg xmlns="http://www.w3.org/2000/svg" width="273.331" height="191.98" viewBox="0 0 273.331 191.98">
    <defs>
        <clipPath id="rl1lg62iua">
            <path data-name="Rectangle 3294" style="fill:none" d="M0 0h273.33v191.98H0z"/>
        </clipPath>
    </defs>
    <g data-name="Group 3747">
        <path data-name="Rectangle 3293" style="fill:#83a6ff" d="M0 0h273.33v191.98H0z"/>
        <path data-name="Path 2576" d="M75.34 0 0 75.33v53.3L128.64 0z" style="fill:#78a2ff"/>
        <path data-name="Path 2577" d="M198.28 0 6.29 191.98h53.3L251.58 0z" style="fill:#88adff"/>
        <path data-name="Path 2578" d="M139.19 191.98h53.3l80.84-80.84v-53.3z" style="fill:#78a2ff"/>
        <g data-name="Group 3746">
            <g data-name="Group 3745" style="clip-path:url(#rl1lg62iua)">
                <path data-name="Path 2579" d="m184.559 99.621-14.527 4.808a4.553 4.553 0 0 1-2.915-8.627l14.731-5.08a16.005 16.005 0 0 1 6.635-.812l13.531 1.2a6.706 6.706 0 0 1 6.1 7.063l-.492 8.552a4.078 4.078 0 0 1-3.155 3.739l-23.945 5.518a11.227 11.227 0 0 1-5.906-.236l-14.925-4.724a15.079 15.079 0 0 1-4.907-2.631l-12.86-10.36a4.494 4.494 0 0 1 5.511-7.1l11.341 8.483a6 6 0 0 0 2.994 1.164l2.242.225" style="fill:#2468ff"/>
                <path data-name="Path 2580" d="M168.586 105.055a4.974 4.974 0 0 0 1.57-.255l14.527-4.808-.246-.742-14.527 4.808a4.163 4.163 0 0 1-2.665-7.887l-.255-.739a4.947 4.947 0 0 0 1.6 9.623" style="fill:#fff"/>
                <path data-name="Path 2581" d="M182.2 74.378a16.229 16.229 0 1 1-8.662-21.253 16.228 16.228 0 0 1 8.662 21.253" style="fill:#ffda00"/>
                <path data-name="Path 2582" d="M160.479 84.155a17.438 17.438 0 1 1 22.838-9.308 17.458 17.458 0 0 1-22.838 9.308M173.07 54.24a15.018 15.018 0 1 0 8.016 19.668 15.036 15.036 0 0 0-8.016-19.668" style="fill:#ffb600"/>
                <path data-name="Path 2583" d="M163.5 75.679a8.682 8.682 0 0 1-2.046-1.662 7.138 7.138 0 0 1-1.322-2.045l1.313-.863a.915.915 0 0 1 .391-.142.783.783 0 0 1 .409.054 1.035 1.035 0 0 1 .431.374q.2.278.442.643a8.919 8.919 0 0 0 .588.773 3.991 3.991 0 0 0 .892.764l2.408-4.592q-.664-.53-1.282-1.129a5.383 5.383 0 0 1-1.007-1.322 3.838 3.838 0 0 1-.447-1.6 4.746 4.746 0 0 1 1.393-3.412 4.55 4.55 0 0 1 1.521-.985 5.384 5.384 0 0 1 1.942-.363 5.558 5.558 0 0 1 2.238.477l.687-1.3a.811.811 0 0 1 .407-.372.707.707 0 0 1 .585.006l.967.407-1.06 2.013a6.386 6.386 0 0 1 1.677 1.457 7.668 7.668 0 0 1 .99 1.63l-1.045.7a1.4 1.4 0 0 1-.432.194.655.655 0 0 1-.406-.046.989.989 0 0 1-.334-.259c-.117-.129-.25-.28-.4-.455s-.314-.359-.5-.554a4.64 4.64 0 0 0-.651-.562l-2.225 4.246q.666.555 1.3 1.153a5.927 5.927 0 0 1 1.043 1.3 3.783 3.783 0 0 1 .505 1.52 3.638 3.638 0 0 1-.328 1.819 5.6 5.6 0 0 1-1.11 1.716 4.9 4.9 0 0 1-1.606 1.126 5.273 5.273 0 0 1-2.011.424 6.761 6.761 0 0 1-2.325-.391l-.785 1.509a.816.816 0 0 1-.4.362.7.7 0 0 1-.586 0l-.967-.407zm3.75-11.911a1.8 1.8 0 0 0-.005 1.481 2.953 2.953 0 0 0 .411.674 6 6 0 0 0 .6.648l1.985-3.8a4.123 4.123 0 0 0-1.1-.17 2.4 2.4 0 0 0-.861.144 1.713 1.713 0 0 0-.627.406 1.941 1.941 0 0 0-.4.613m2.238 9.127a1.773 1.773 0 0 0 .154-.767 1.84 1.84 0 0 0-.178-.707 2.844 2.844 0 0 0-.441-.661 6.774 6.774 0 0 0-.636-.63l-2.177 4.162a3 3 0 0 0 2.026-.042 2.415 2.415 0 0 0 1.252-1.355" style="fill:#ffb600"/>
                <path data-name="Path 2584" d="M162.82 75a8.682 8.682 0 0 1-2.046-1.662 7.138 7.138 0 0 1-1.322-2.045l1.313-.863a.916.916 0 0 1 .391-.142.783.783 0 0 1 .409.054 1.036 1.036 0 0 1 .431.374q.2.278.442.643a8.921 8.921 0 0 0 .588.773 3.991 3.991 0 0 0 .892.764l2.408-4.592q-.665-.53-1.282-1.129a5.383 5.383 0 0 1-1.007-1.322 3.838 3.838 0 0 1-.447-1.6 4.747 4.747 0 0 1 1.393-3.412 4.55 4.55 0 0 1 1.521-.985 5.384 5.384 0 0 1 1.942-.363 5.558 5.558 0 0 1 2.238.477l.687-1.3a.811.811 0 0 1 .407-.372.707.707 0 0 1 .585.006l.967.407-1.06 2.013a6.386 6.386 0 0 1 1.677 1.457 7.668 7.668 0 0 1 .99 1.63l-1.045.7a1.4 1.4 0 0 1-.432.194.655.655 0 0 1-.406-.046.989.989 0 0 1-.334-.259c-.117-.129-.25-.28-.4-.455s-.314-.359-.5-.554a4.641 4.641 0 0 0-.651-.562l-2.225 4.246q.666.555 1.3 1.153a5.926 5.926 0 0 1 1.043 1.3 3.783 3.783 0 0 1 .505 1.52 3.638 3.638 0 0 1-.328 1.819 5.6 5.6 0 0 1-1.11 1.716 4.9 4.9 0 0 1-1.606 1.126 5.273 5.273 0 0 1-2.011.424 6.761 6.761 0 0 1-2.325-.391l-.785 1.509a.816.816 0 0 1-.4.362.7.7 0 0 1-.586 0l-.967-.407zm3.75-11.911a1.8 1.8 0 0 0-.005 1.481 2.953 2.953 0 0 0 .411.674 6 6 0 0 0 .6.648l1.985-3.8a4.123 4.123 0 0 0-1.1-.17 2.4 2.4 0 0 0-.861.144 1.714 1.714 0 0 0-.627.406 1.941 1.941 0 0 0-.4.613m2.238 9.127a1.772 1.772 0 0 0 .154-.767 1.84 1.84 0 0 0-.178-.707 2.844 2.844 0 0 0-.441-.661 6.776 6.776 0 0 0-.636-.63l-2.177 4.162a3 3 0 0 0 2.026-.042 2.415 2.415 0 0 0 1.252-1.355" style="fill:#fff"/>
                <path data-name="Path 2585" d="M76.919 130.02A11.318 11.318 0 1 1 65.6 118.7a11.318 11.318 0 0 1 11.319 11.32" style="fill:#2468ff"/>
                <path data-name="Path 2586" d="M88.247 167.065H42.954a22.649 22.649 0 0 1 20.516-22.548l-1.653 3.7 3.783 11.33 3.783-11.332-1.653-3.7a22.649 22.649 0 0 1 20.516 22.548" style="fill:#2468ff"/>
                <path data-name="Path 2587" d="M182.55 138.5a6.5 6.5 0 1 1-6.5-6.5 6.5 6.5 0 0 1 6.5 6.5" style="fill:#fff"/>
                <path data-name="Path 2588" d="M182.751 148.629a20.044 20.044 0 0 0-5.863 11.151h-13.849a13.013 13.013 0 0 1 19.712-11.151" style="fill:#fff"/>
                <path data-name="Path 2589" d="M223.869 138.5a6.5 6.5 0 1 1-6.5-6.5 6.5 6.5 0 0 1 6.5 6.5" style="fill:#fff"/>
                <path data-name="Path 2590" d="M230.376 159.78h-13.848a20.044 20.044 0 0 0-5.863-11.151 13.012 13.012 0 0 1 19.711 11.151" style="fill:#fff"/>
                <path data-name="Path 2591" d="M214.688 163.065h-35.961a17.98 17.98 0 0 1 35.961 0" style="fill:#fff"/>
                <path data-name="Path 2592" d="M192.387 142.64h8.643a4.664 4.664 0 0 0 4.664-4.664v-4.322a8.985 8.985 0 0 0-17.971 0v4.322a4.664 4.664 0 0 0 4.664 4.664" style="fill:#fff"/>
                <path data-name="Path 2593" d="M128.83 70.09H97.355V53.524a3.314 3.314 0 0 0-6.627 0V70.09H57.6a3.313 3.313 0 0 0 0 6.626h71.23a3.313 3.313 0 0 0 0-6.626m-62.95 36.444a4.969 4.969 0 0 0 4.97 4.97h44.727a4.969 4.969 0 0 0 4.97-4.97l6.626-28.162h-67.92zm46.384-22.363a.828.828 0 1 1 1.657 0v8.282a.828.828 0 1 1-1.657 0zm0 13.252a.828.828 0 0 1 1.657 0v8.283a.828.828 0 0 1-1.657 0zm-6.626-13.252a.828.828 0 1 1 1.656 0v8.282a.828.828 0 1 1-1.656 0zm0 13.252a.828.828 0 0 1 1.656 0v8.283a.828.828 0 0 1-1.656 0zm-6.627-13.252a.828.828 0 1 1 1.657 0v8.282a.828.828 0 1 1-1.657 0zm0 13.252a.828.828 0 0 1 1.657 0v8.283a.828.828 0 0 1-1.657 0zm-6.626-13.252a.828.828 0 1 1 1.657 0v8.282a.828.828 0 1 1-1.657 0zm0 13.252a.828.828 0 0 1 1.657 0v8.283a.828.828 0 0 1-1.657 0zm-6.626-13.252a.828.828 0 1 1 1.656 0v8.282a.828.828 0 1 1-1.656 0zm0 13.252a.828.828 0 0 1 1.656 0v8.283a.828.828 0 0 1-1.656 0zm-6.627-13.252a.828.828 0 1 1 1.657 0v8.282a.828.828 0 1 1-1.657 0zm0 13.252a.828.828 0 0 1 1.657 0v8.283a.828.828 0 0 1-1.657 0zm-6.626-13.252a.829.829 0 1 1 1.657 0v8.282a.829.829 0 1 1-1.657 0zm0 13.252a.829.829 0 0 1 1.657 0v8.283a.829.829 0 0 1-1.657 0z" style="fill:#fff"/>
                <path data-name="Path 2594" d="m164.533 24.915-11.383.654 4.773 4.773-17.453 18.08-14.811-5.531-19.959 18.17 1.346 1.479L126.1 45.191l14.9 5.563 18.339-19 4.542 4.542z" style="fill:#2468ff"/>
                <path data-name="Path 2595" d="m144.034 136.541-2.6-16.27-4.564 5.794a29.194 29.194 0 0 0-5.8-2.292c-10.576-2.888-19.625 1.733-25.906 10.179 4.542-3.726 10.009-6.62 15.947-6.328A18.456 18.456 0 0 1 132 132.066l.085.073-4.477 5.684z" style="fill:#ffda00"/>
                <path data-name="Path 2596" d="m114.75 147.8 2.6 16.27 4.564-5.794a29.194 29.194 0 0 0 5.8 2.292c10.576 2.888 19.625-1.733 25.906-10.179-4.542 3.726-10.009 6.62-15.947 6.328a18.456 18.456 0 0 1-10.893-4.442l-.085-.073 4.477-5.684z" style="fill:#2468ff"/>
            </g>
        </g>
    </g>
</svg>
