<svg xmlns="http://www.w3.org/2000/svg" width="21" height="21" viewBox="0 0 21 21">
    <defs>
        <radialGradient id="hixawdsu6a" cx=".5" cy=".5" r=".679" gradientUnits="objectBoundingBox">
            <stop offset="0" stop-color="#4c48ff"/>
            <stop offset="1" stop-color="#8383ff"/>
        </radialGradient>
    </defs>
    <g data-name="Group 4294">
        <g data-name="Group 4293">
            <path data-name="Path 2805" d="M1.877 0A1.877 1.877 0 0 0 0 1.876v17.247A1.876 1.876 0 0 0 1.877 21h6.854a6.047 6.047 0 0 0 4.28-1.774L19.229 13A6.049 6.049 0 0 0 21 8.727V1.876A1.877 1.877 0 0 0 19.124 0z" style="fill:url(#hixawdsu6a)"/>
            <path data-name="Path 2806" d="M28.278 5.525v.6a1.7 1.7 0 0 1 1.149.63 1.911 1.911 0 0 1 .341.743.516.516 0 1 1-1.009.214 1.115 1.115 0 0 0-.2-.444.788.788 0 0 0-.654-.31.878.878 0 0 0-.639.224.84.84 0 0 0-.23.636.778.778 0 0 0 .227.594 2.168 2.168 0 0 0 .773.425 6.69 6.69 0 0 1 .857.367 2.209 2.209 0 0 1 .525.391 1.531 1.531 0 0 1 .328.507 1.785 1.785 0 0 1 .115.669 1.592 1.592 0 0 1-.442 1.169 1.953 1.953 0 0 1-1.23.529v.49a.339.339 0 1 1-.678 0v-.489a1.942 1.942 0 0 1-1.3-.6 1.708 1.708 0 0 1-.38-.728.517.517 0 0 1 .87-.477.525.525 0 0 1 .134.236 1.016 1.016 0 0 0 .226.445 1 1 0 0 0 .768.295 1.063 1.063 0 0 0 .739-.235.809.809 0 0 0 .255-.624.828.828 0 0 0-.23-.6 2.025 2.025 0 0 0-.768-.424 6.007 6.007 0 0 1-.835-.353 1.7 1.7 0 0 1-1-1.58 1.616 1.616 0 0 1 .431-1.163 1.838 1.838 0 0 1 1.166-.543v-.594a.339.339 0 0 1 .339-.339.339.339 0 0 1 .341.337" transform="translate(-12.266 -2.463)" style="fill:#fff"/>
            <path data-name="Path 2807" d="M12.279 7h-6.94a.152.152 0 0 1-.152-.153V5.339a.152.152 0 0 1 .152-.153h6.939a.153.153 0 0 1 .153.153v1.508a.153.153 0 0 1-.152.153" transform="translate(-2.464 -2.463)" style="fill:#fff"/>
            <path data-name="Path 2808" d="M13.331 15.641H5.339a.152.152 0 0 1-.152-.153V13.98a.152.152 0 0 1 .152-.153h7.992a.153.153 0 0 1 .153.153v1.508a.153.153 0 0 1-.153.153" transform="translate(-2.464 -6.568)" style="fill:#fff"/>
            <path data-name="Path 2809" d="M16.415 24.282H5.339a.152.152 0 0 1-.152-.153v-1.508a.152.152 0 0 1 .152-.153h11.077a.153.153 0 0 1 .153.153v1.508a.153.153 0 0 1-.153.153" transform="translate(-2.464 -10.672)" style="fill:#fff"/>
            <path data-name="Path 2810" d="M13.648 30.416h-1.429v-1.429h-.881v1.429h-1.43v.884h1.429v1.429h.881V31.3h1.429z" transform="translate(-4.706 -13.769)" style="fill:#fff"/>
        </g>
    </g>
</svg>
