<svg xmlns="http://www.w3.org/2000/svg" width="21" height="21" viewBox="0 0 21 21">
    <defs>
        <radialGradient id="n9qe8s21aa" cx=".5" cy=".5" r=".5" gradientUnits="objectBoundingBox">
            <stop offset="0" stop-color="#4c48ff"/>
            <stop offset=".239" stop-color="#504dff"/>
            <stop offset=".531" stop-color="#5e5cff"/>
            <stop offset=".849" stop-color="#7574ff"/>
            <stop offset="1" stop-color="#8383ff"/>
        </radialGradient>
    </defs>
    <path data-name="Path 2165" d="M548.364 1217.629a.981.981 0 1 0 .807.213.98.98 0 0 0-.807-.213zm0 0a.981.981 0 1 0 .807.213.98.98 0 0 0-.807-.213zm10.352.433c-.473-1.148.677-3.413-.187-4.275s-3.127.289-4.27-.187c-1.106-.457-1.885-2.888-3.155-2.888s-2.048 2.432-3.15 2.888c-1.148.476-3.413-.677-4.275.187s.289 3.127-.187 4.275c-.457 1.1-2.888 1.881-2.888 3.15s2.432 2.048 2.888 3.155c.476 1.143-.677 3.407.187 4.27s3.127-.285 4.275.187c1.1.457 1.881 2.888 3.15 2.888s2.048-2.432 3.155-2.888c1.144-.473 3.407.676 4.27-.187s-.285-3.127.187-4.27c.457-1.106 2.888-1.885 2.888-3.155s-2.431-2.049-2.888-3.15zm-12.378.536a2.209 2.209 0 1 1 1.894 2.174 2.206 2.206 0 0 1-1.894-2.174zm1.978 7.323h-1.26l6.242-9.157a.619.619 0 0 1 .512-.271h1.25l-6.233 9.156a.62.62 0 0 1-.511.272zm5.345.117a2.205 2.205 0 1 1 2.205-2.205 2.205 2.205 0 0 1-2.205 2.205zm.1-3.173a.98.98 0 1 0 .87.858.98.98 0 0 0-.87-.859zm-4.239-4.266a.982.982 0 1 0-.98.976.982.982 0 0 0 .98-.975z" transform="translate(-540.604 -1210.712)" style="fill:url(#n9qe8s21aa)"/>
</svg>
