<svg xmlns="http://www.w3.org/2000/svg" width="21.86" height="21.86" viewBox="0 0 21.86 21.86">
    <path data-name="Path 2510" d="M21.86 2.039v17.782a2.039 2.039 0 0 1-2.039 2.039H13.73v-8.77h2.9l.47-3.42h-3.37V7.52a2.032 2.032 0 0 1 .28-1.22 1.827 1.827 0 0 1 1.41-.47h1.78V2.78a22.324 22.324 0 0 0-2.63-.14 4.252 4.252 0 0 0-3.16 1.2 4.444 4.444 0 0 0-1.2 3.3v2.53H7.26v3.42h2.95v8.77H2.039A2.039 2.039 0 0 1 0 19.821V2.039A2.039 2.039 0 0 1 2.039 0h17.782a2.039 2.039 0 0 1 2.039 2.039" style="fill:#6c6cff"/>
</svg>
