<svg xmlns="http://www.w3.org/2000/svg" width="273.331" height="191.98" viewBox="0 0 273.331 191.98">
    <defs>
        <clipPath id="vnw5j9hsfa">
            <path data-name="Rectangle 3302" style="fill:none" d="M0 0h273.33v191.98H0z"/>
        </clipPath>
    </defs>
    <g data-name="Group 3750">
        <path data-name="Rectangle 3295" style="fill:#9599ff" d="M0 0h273.33v191.98H0z"/>
        <path data-name="Path 2597" d="M75.34 0 0 75.33v53.3L128.64 0z" style="fill:#8a93ff"/>
        <path data-name="Path 2598" d="M198.28 0 6.29 191.98h53.3L251.58 0z" style="fill:#99a1ff"/>
        <path data-name="Path 2599" d="M139.19 191.98h53.3l80.84-80.84v-53.3z" style="fill:#8a93ff"/>
        <g data-name="Group 3749">
            <g data-name="Group 3748" style="clip-path:url(#vnw5j9hsfa)">
                <path data-name="Path 2600" d="m140.883 38.541-.89-5.562-1.559 1.981a9.93 9.93 0 0 0-1.985-.785c-3.616-.987-6.711.593-8.858 3.481a8.171 8.171 0 0 1 5.453-2.164 6.321 6.321 0 0 1 3.724 1.519l.03.025-1.532 1.944z" style="fill:#fff"/>
                <path data-name="Path 2601" d="m130.87 42.393.889 5.563 1.56-1.981a9.963 9.963 0 0 0 1.985.784c3.616.987 6.71-.593 8.858-3.481a8.168 8.168 0 0 1-5.453 2.164 6.31 6.31 0 0 1-3.724-1.519l-.03-.025 1.531-1.943z" style="fill:#fff"/>
                <path data-name="Path 2602" d="m178.373 88.857 6.98 26.77 42.236-1.164 1.829-25.606z" style="fill:#514dff"/>
                <path data-name="Path 2603" d="M179.148 113.128a4.653 4.653 0 0 0 4.653 4.653h41.877a4.653 4.653 0 0 0 4.653-4.653l6.2-26.367h-63.59zm43.428-20.939a.776.776 0 0 1 1.552 0v7.755a.776.776 0 0 1-1.552 0zm0 12.408a.776.776 0 0 1 1.552 0v7.755a.776.776 0 0 1-1.552 0zm-6.2-12.408a.776.776 0 0 1 1.551 0v7.755a.776.776 0 1 1-1.551 0zm0 12.408a.776.776 0 0 1 1.551 0v7.755a.776.776 0 1 1-1.551 0zm-6.2-12.408a.775.775 0 1 1 1.55 0v7.755a.775.775 0 1 1-1.55 0zm0 12.408a.775.775 0 1 1 1.55 0v7.755a.775.775 0 1 1-1.55 0zm-6.205-12.408a.776.776 0 0 1 1.552 0v7.755a.776.776 0 0 1-1.552 0zm0 12.408a.776.776 0 0 1 1.552 0v7.755a.776.776 0 1 1-1.552 0zm-6.2-12.408a.776.776 0 0 1 1.551 0v7.755a.776.776 0 1 1-1.551 0zm0 12.408a.776.776 0 0 1 1.551 0v7.755a.776.776 0 1 1-1.551 0zm-6.2-12.408a.775.775 0 1 1 1.55 0v7.755a.775.775 0 1 1-1.55 0zm0 12.408a.775.775 0 1 1 1.55 0v7.755a.775.775 0 1 1-1.55 0zm-6.205-12.408a.776.776 0 0 1 1.552 0v7.755a.776.776 0 0 1-1.552 0zm0 12.408a.776.776 0 0 1 1.552 0v7.755a.776.776 0 0 1-1.552 0zm52.735-25.591h-29.47V63.5a3.1 3.1 0 0 0-6.2 0v15.51h-31.02a3.1 3.1 0 0 0 0 6.2h66.694a3.1 3.1 0 0 0 0-6.2" style="fill:#ffc408"/>
                <path data-name="Path 2604" d="M46.081 115.033V69.494l-5.2-5.2-5.071-5.072-3.669 3.678 8.743 8.743v48.587h62.965v-5.193z" style="fill:#514dff"/>
                <path data-name="Path 2605" d="M66.9 130.625a5.647 5.647 0 1 1-5.647-5.647 5.647 5.647 0 0 1 5.647 5.647" style="fill:#4848ff"/>
                <circle data-name="Ellipse 2340" cx="5.647" cy="5.647" r="5.647" transform="translate(55.607 124.978)" style="stroke:#fff;stroke-miterlimit:10;fill:none"/>
                <path data-name="Path 2606" d="M93.174 130.625a5.647 5.647 0 1 1-5.647-5.647 5.647 5.647 0 0 1 5.647 5.647" style="fill:#4848ff"/>
                <circle data-name="Ellipse 2341" cx="5.647" cy="5.647" r="5.647" transform="translate(81.88 124.978)" style="stroke:#fff;stroke-miterlimit:10;fill:none"/>
                <path data-name="Rectangle 3296" transform="translate(49.679 91.737)" style="fill:#ffc408" d="M0 0h23.142v19.684H0z"/>
                <path data-name="Rectangle 3297" transform="translate(48.548 90.549)" style="fill:#ffc408" d="M0 0h25.403v5.32H0z"/>
                <path data-name="Path 2607" d="m49.679 95.869 23.142 2.66v-2.66z" style="fill:#514dff"/>
                <path data-name="Path 2608" d="M63.552 103.084h-4.6a1.039 1.039 0 0 1-1.039-1.039v-.416a1.039 1.039 0 0 1 1.039-1.039h4.6a1.039 1.039 0 0 1 1.039 1.039v.416a1.039 1.039 0 0 1-1.039 1.039" style="fill:#514dff"/>
                <path data-name="Rectangle 3298" transform="translate(76.42 91.737)" style="fill:#ffc408" d="M0 0h23.142v19.684H0z"/>
                <path data-name="Rectangle 3299" transform="translate(75.29 90.549)" style="fill:#ffc408" d="M0 0h25.403v5.32H0z"/>
                <path data-name="Path 2609" d="m76.42 95.869 23.142 2.66v-2.66z" style="fill:#514dff"/>
                <path data-name="Path 2610" d="M90.294 103.084h-4.6a1.039 1.039 0 0 1-1.039-1.039v-.416a1.039 1.039 0 0 1 1.039-1.039h4.6a1.039 1.039 0 0 1 1.039 1.039v.416a1.039 1.039 0 0 1-1.039 1.039" style="fill:#514dff"/>
                <path data-name="Rectangle 3300" transform="translate(63.05 67.25)" style="fill:#ffc408" d="M0 0h23.142v19.684H0z"/>
                <path data-name="Rectangle 3301" transform="translate(61.919 66.062)" style="fill:#ffc408" d="M0 0h25.403v5.32H0z"/>
                <path data-name="Path 2611" d="m63.05 71.381 23.142 2.66v-2.66z" style="fill:#514dff"/>
                <path data-name="Path 2612" d="M76.923 78.6h-4.6a1.039 1.039 0 0 1-1.039-1.039v-.416a1.039 1.039 0 0 1 1.034-1.045h4.6a1.039 1.039 0 0 1 1.039 1.039v.416a1.039 1.039 0 0 1-1.034 1.045" style="fill:#514dff"/>
                <path data-name="Path 2613" d="M133.35 129.413a7.579 7.579 0 1 1-4.045-9.925 7.578 7.578 0 0 1 4.045 9.925" style="fill:#ffda00"/>
                <path data-name="Path 2614" d="M123.206 133.98a8.144 8.144 0 1 1 10.665-4.347 8.154 8.154 0 0 1-10.665 4.347m5.88-13.971a7.014 7.014 0 1 0 3.744 9.185 7.021 7.021 0 0 0-3.744-9.185" style="fill:#ffb600"/>
                <path data-name="Path 2615" d="M124.619 130.021a4.078 4.078 0 0 1-.956-.776 3.35 3.35 0 0 1-.618-.955l.614-.4a.412.412 0 0 1 .183-.066.364.364 0 0 1 .191.025.491.491 0 0 1 .2.175c.061.086.13.186.206.3a4.29 4.29 0 0 0 .275.361 1.867 1.867 0 0 0 .416.356l1.125-2.144q-.31-.248-.6-.527a2.523 2.523 0 0 1-.47-.618 1.794 1.794 0 0 1-.209-.747 2.223 2.223 0 0 1 .65-1.593 2.13 2.13 0 0 1 .711-.46 2.52 2.52 0 0 1 .907-.17 2.61 2.61 0 0 1 1.045.223l.321-.609a.381.381 0 0 1 .19-.174.333.333 0 0 1 .273 0l.452.19-.495.94a2.974 2.974 0 0 1 .783.681 3.545 3.545 0 0 1 .462.761l-.488.326a.638.638 0 0 1-.2.09.3.3 0 0 1-.19-.021.459.459 0 0 1-.156-.121c-.055-.06-.117-.131-.186-.212s-.146-.168-.233-.259a2.108 2.108 0 0 0-.3-.263l-1.039 1.983q.312.259.606.539a2.714 2.714 0 0 1 .487.6 1.766 1.766 0 0 1 .236.71 1.7 1.7 0 0 1-.153.85 2.627 2.627 0 0 1-.519.8 2.3 2.3 0 0 1-.749.526 2.474 2.474 0 0 1-.94.2 3.133 3.133 0 0 1-1.085-.183l-.367.7a.381.381 0 0 1-.188.169.328.328 0 0 1-.274 0l-.452-.19zm1.751-5.562a.833.833 0 0 0 0 .691 1.374 1.374 0 0 0 .191.315 3.017 3.017 0 0 0 .282.3l.927-1.773a1.952 1.952 0 0 0-.515-.08 1.13 1.13 0 0 0-.4.068.8.8 0 0 0-.293.189.919.919 0 0 0-.187.287m1.045 4.262a.827.827 0 0 0 .072-.358.864.864 0 0 0-.083-.33 1.342 1.342 0 0 0-.206-.309 3.181 3.181 0 0 0-.3-.294l-1.017 1.944a1.405 1.405 0 0 0 .946-.02 1.127 1.127 0 0 0 .585-.633" style="fill:#ff7900"/>
                <path data-name="Path 2616" d="M124.3 129.7a4.079 4.079 0 0 1-.956-.776 3.35 3.35 0 0 1-.618-.955l.614-.4a.412.412 0 0 1 .183-.066.364.364 0 0 1 .191.025.491.491 0 0 1 .2.175c.061.086.13.186.206.3a4.288 4.288 0 0 0 .275.361 1.867 1.867 0 0 0 .416.356l1.125-2.144q-.311-.248-.6-.527a2.523 2.523 0 0 1-.47-.618 1.794 1.794 0 0 1-.209-.747 2.223 2.223 0 0 1 .65-1.593 2.146 2.146 0 0 1 .711-.46 2.52 2.52 0 0 1 .907-.17 2.61 2.61 0 0 1 1.045.223l.321-.609a.381.381 0 0 1 .19-.174.333.333 0 0 1 .273 0l.452.19-.495.94a2.974 2.974 0 0 1 .783.681 3.545 3.545 0 0 1 .462.761l-.488.326a.638.638 0 0 1-.2.09.3.3 0 0 1-.19-.021.459.459 0 0 1-.156-.121c-.055-.06-.117-.131-.186-.212s-.146-.168-.233-.259a2.108 2.108 0 0 0-.3-.263L127.16 126q.312.259.606.539a2.714 2.714 0 0 1 .487.6 1.766 1.766 0 0 1 .236.71 1.7 1.7 0 0 1-.153.85 2.628 2.628 0 0 1-.519.8 2.3 2.3 0 0 1-.749.526 2.474 2.474 0 0 1-.94.2 3.133 3.133 0 0 1-1.085-.183l-.367.705a.382.382 0 0 1-.188.169.328.328 0 0 1-.274 0l-.452-.19zm1.751-5.562a.833.833 0 0 0 0 .691 1.374 1.374 0 0 0 .191.315 3.017 3.017 0 0 0 .282.3l.927-1.773a1.952 1.952 0 0 0-.515-.08 1.13 1.13 0 0 0-.4.068.8.8 0 0 0-.293.189.919.919 0 0 0-.187.287m1.044 4.265a.827.827 0 0 0 .072-.358.864.864 0 0 0-.083-.33 1.342 1.342 0 0 0-.206-.309 3.181 3.181 0 0 0-.3-.294l-1.017 1.944a1.405 1.405 0 0 0 .946-.02 1.127 1.127 0 0 0 .585-.633" style="fill:#fff"/>
                <path data-name="Path 2617" d="M148.039 91.321h-9.213v-9.213H134.5v9.213h-9.21v4.323h9.21v9.213h4.323v-9.213h9.213z" style="fill:#fff"/>
                <path data-name="Path 2618" d="M111.638 31.082a6.167 6.167 0 1 1-6.167-6.167 6.167 6.167 0 0 1 6.167 6.167" style="fill:#514dff"/>
                <path data-name="Path 2619" d="M117.809 51.265H93.131a12.34 12.34 0 0 1 11.178-12.285l-.9 2.014 2.061 6.175 2.062-6.175-.9-2.014a12.34 12.34 0 0 1 11.178 12.285" style="fill:#514dff"/>
                <path data-name="Path 2620" d="M161.19 35.7a3.542 3.542 0 1 1-3.542-3.542 3.542 3.542 0 0 1 3.542 3.542" style="fill:#514dff"/>
                <path data-name="Path 2621" d="M161.3 41.221a10.919 10.919 0 0 0-3.194 6.076h-7.545a7.089 7.089 0 0 1 10.739-6.076" style="fill:#514dff"/>
                <path data-name="Path 2622" d="M183.7 35.7a3.542 3.542 0 1 1-3.542-3.542A3.542 3.542 0 0 1 183.7 35.7" style="fill:#514dff"/>
                <path data-name="Path 2623" d="M187.248 47.3H179.7a10.922 10.922 0 0 0-3.194-6.075 7.09 7.09 0 0 1 10.742 6.075" style="fill:#514dff"/>
                <path data-name="Path 2624" d="M178.7 49.086h-19.592a9.8 9.8 0 1 1 19.593 0" style="fill:#514dff"/>
                <path data-name="Path 2625" d="M166.55 37.957h4.709a2.541 2.541 0 0 0 2.541-2.541v-2.355a4.9 4.9 0 1 0-9.791 0v2.355a2.541 2.541 0 0 0 2.541 2.541" style="fill:#514dff"/>
                <path data-name="Path 2626" d="m136.5 154.426.889-5.563 1.56 1.981a9.963 9.963 0 0 1 1.985-.784c3.616-.987 6.71.593 8.858 3.481a8.167 8.167 0 0 0-5.453-2.164 6.31 6.31 0 0 0-3.724 1.519l-.03.025 1.531 1.943z" style="fill:#fff"/>
                <path data-name="Path 2627" d="m146.51 158.278-.889 5.563-1.56-1.981a9.964 9.964 0 0 1-1.985.784c-3.616.987-6.71-.593-8.858-3.481a8.167 8.167 0 0 0 5.453 2.164 6.31 6.31 0 0 0 3.724-1.519l.03-.025-1.531-1.943z" style="fill:#fff"/>
                <path data-name="Path 2628" d="M165.742 146.967a6.166 6.166 0 1 0 6.167-6.167 6.167 6.167 0 0 0-6.167 6.167" style="fill:#514dff"/>
                <path data-name="Path 2629" d="M159.571 167.15h24.678a12.34 12.34 0 0 0-11.178-12.285l.9 2.014-2.061 6.175-2.062-6.175.9-2.014a12.34 12.34 0 0 0-11.178 12.285" style="fill:#514dff"/>
                <path data-name="Path 2630" d="M103.571 146.967a6.167 6.167 0 1 0 6.167-6.167 6.167 6.167 0 0 0-6.167 6.167" style="fill:#514dff"/>
                <path data-name="Path 2631" d="M97.4 167.15h24.678a12.34 12.34 0 0 0-11.178-12.285l.9 2.014-2.061 6.175-2.062-6.175.9-2.014A12.34 12.34 0 0 0 97.4 167.15" style="fill:#514dff"/>
                <path data-name="Path 2632" d="m177.563 60.359-5.9.339 2.473 2.473-9.044 9.369-7.675-2.866-10.341 9.416.7.766 9.875-8.99 7.719 2.882 9.5-9.844 2.354 2.353z" style="fill:#fff"/>
            </g>
        </g>
    </g>
</svg>
