<svg xmlns="http://www.w3.org/2000/svg" xmlns:xlink="http://www.w3.org/1999/xlink" width="21" height="20.999" viewBox="0 0 21 20.999">
    <defs>
        <radialGradient id="tv980rypia" cx=".471" cy=".483" r="1.095" gradientTransform="matrix(.487 0 0 1 .257 0)" gradientUnits="objectBoundingBox">
            <stop offset="0" stop-color="#4c48ff"/>
            <stop offset="1" stop-color="#8383ff"/>
        </radialGradient>
        <radialGradient id="yrovhkijhb" cx=".471" cy=".483" r="1.095" xlink:href="#tv980rypia"/>
        <radialGradient id="5efk7lqj7c" cx=".5" cy=".5" r=".808" xlink:href="#tv980rypia"/>
    </defs>
    <g data-name="Group 3597">
        <path data-name="Path 2370" d="M705.077 1326.847a38.659 38.659 0 0 1 4.53 2.694.352.352 0 0 1 0 .572 38.671 38.671 0 0 1-4.53 2.694q-2.159 1.1-4.519 2.027a3.617 3.617 0 0 1-2.622 0q-2.359-.924-4.518-2.027a38.382 38.382 0 0 1-4.518-2.687.352.352 0 0 1 0-.571 38.688 38.688 0 0 1 4.53-2.694q2.16-1.1 4.52-2.028a3.611 3.611 0 0 1 2.619 0 49.317 49.317 0 0 1 4.508 2.02z" transform="translate(-688.754 -1314.08)" style="fill:url(#tv980rypia);opacity:.42"/>
        <path data-name="Path 2371" d="M705.077 1320.624a38.647 38.647 0 0 1 4.53 2.694.352.352 0 0 1 0 .571 38.644 38.644 0 0 1-4.53 2.694q-2.159 1.1-4.519 2.027a3.616 3.616 0 0 1-2.622 0q-2.359-.924-4.519-2.027a38.409 38.409 0 0 1-4.518-2.687.352.352 0 0 1 0-.571 38.708 38.708 0 0 1 4.53-2.694q2.16-1.1 4.52-2.028a3.613 3.613 0 0 1 2.619 0q2.349.918 4.509 2.021z" transform="translate(-688.754 -1311.039)" style="fill:url(#yrovhkijhb);opacity:.42"/>
        <path data-name="Path 2372" d="M705.077 1313.908a38.643 38.643 0 0 1 4.53 2.694.352.352 0 0 1 0 .571 38.655 38.655 0 0 1-4.53 2.694q-2.159 1.1-4.519 2.027a3.616 3.616 0 0 1-2.622 0q-2.359-.924-4.519-2.027a38.411 38.411 0 0 1-4.518-2.687.352.352 0 0 1 0-.571 38.649 38.649 0 0 1 4.53-2.694q2.16-1.1 4.52-2.028a3.611 3.611 0 0 1 2.619 0q2.35.919 4.509 2.021z" transform="translate(-688.754 -1307.757)" style="fill:url(#tv980rypia);opacity:.42"/>
        <path data-name="Path 2373" d="M705.077 1306.311a38.585 38.585 0 0 1 4.53 2.694.352.352 0 0 1 0 .571 38.726 38.726 0 0 1-4.53 2.694q-2.159 1.1-4.519 2.027a3.614 3.614 0 0 1-2.622 0q-2.359-.924-4.519-2.027a38.421 38.421 0 0 1-4.518-2.688.352.352 0 0 1 0-.571 38.651 38.651 0 0 1 4.53-2.694q2.16-1.1 4.52-2.028a3.609 3.609 0 0 1 2.619 0 49.356 49.356 0 0 1 4.509 2.022z" transform="translate(-688.754 -1304.044)" style="fill:url(#5efk7lqj7c)"/>
        <g data-name="Group 3596">
            <path data-name="Path 2374" d="M707.839 1312.334a1.741 1.741 0 0 0-.772-.17 4.847 4.847 0 0 0-1.111.158q-.677.162-1.105.224a3.983 3.983 0 0 1-2.394-.27q-.659-.328-.682-.739t.583-.792l-.55-.273c-.174-.087-.174-.228 0-.314a.8.8 0 0 1 .631 0l.557.277a3.975 3.975 0 0 1 1.653-.24 4.261 4.261 0 0 1 1.006.186c.363.113.406.37.1.521a1.233 1.233 0 0 1-.842.045 2.485 2.485 0 0 0-.6-.113 1.737 1.737 0 0 0-.9.162q-.381.189-.389.4t.378.4a1.68 1.68 0 0 0 .766.17 5.4 5.4 0 0 0 1.116-.162q.7-.162 1.143-.226a5.634 5.634 0 0 1 .852-.062 3.861 3.861 0 0 1 .776.082 3.059 3.059 0 0 1 .73.257q.67.333.676.745t-.653.815l.458.228c.174.087.174.228 0 .314a.8.8 0 0 1-.631 0l-.455-.226a4.391 4.391 0 0 1-1.772.321 4.1 4.1 0 0 1-1.03-.162c-.374-.108-.423-.372-.116-.525a1.222 1.222 0 0 1 .824-.051 2.306 2.306 0 0 0 .625.1 2.081 2.081 0 0 0 .986-.216q.452-.225.47-.452t-.328-.412z" transform="translate(-694.999 -1306.937)" style="fill:#fff"/>
        </g>
    </g>
</svg>
