<svg xmlns="http://www.w3.org/2000/svg" xmlns:xlink="http://www.w3.org/1999/xlink" width="528.797" height="69.601" viewBox="0 0 528.797 69.601">
  <defs>
    <clipPath id="clip-path">
      <rect id="Rectangle_2751" data-name="Rectangle 2751" width="528.797" height="69.601" fill="none"/>
    </clipPath>
  </defs>
  <g id="Group_3593" data-name="Group 3593" transform="translate(-628.754 -328.77)">
    <g id="Group_3590" data-name="Group 3590" transform="translate(703.98 352.101)">
      <g id="Group_3587" data-name="Group 3587">
        <g id="Group_3584" data-name="Group 3584" transform="translate(0 4.789)">
          <circle id="Ellipse_2309" data-name="Ellipse 2309" cx="8.381" cy="8.381" r="8.381" fill="#76d055"/>
          <path id="Path_2185" data-name="Path 2185" d="M399.755,4307.14l2.989,2.99,5.73-5.73" transform="translate(-395.733 -4298.883)" fill="none" stroke="#fff" stroke-width="2"/>
        </g>
        <text id="B2C" transform="translate(44.744 21)" fill="#070c1a" font-size="21" font-family="Lato-Bold, Lato" font-weight="700"><tspan x="-19.971" y="0">B2C</tspan></text>
      </g>
      <g id="Group_3588" data-name="Group 3588" transform="translate(126.114)">
        <g id="Group_3585" data-name="Group 3585" transform="translate(0 4.789)">
          <circle id="Ellipse_2309-2" data-name="Ellipse 2309" cx="8.381" cy="8.381" r="8.381" fill="#76d055"/>
          <path id="Path_2185-2" data-name="Path 2185" d="M399.755,4307.14l2.989,2.99,5.73-5.73" transform="translate(-395.733 -4298.883)" fill="none" stroke="#fff" stroke-width="2"/>
        </g>
        <text id="B2B_B2C" data-name="B2B + B2C" transform="translate(24.744 21)" fill="#070c1a" font-size="21" font-family="Lato-Bold, Lato" font-weight="700"><tspan x="0" y="0">B2B + B2C</tspan></text>
      </g>
      <g id="Group_3589" data-name="Group 3589" transform="translate(312.891)">
        <g id="Group_3586" data-name="Group 3586" transform="translate(0 4.789)">
          <circle id="Ellipse_2309-3" data-name="Ellipse 2309" cx="8.381" cy="8.381" r="8.381" fill="#76d055"/>
          <path id="Path_2185-3" data-name="Path 2185" d="M399.755,4307.14l2.989,2.99,5.73-5.73" transform="translate(-395.733 -4298.883)" fill="none" stroke="#fff" stroke-width="2"/>
        </g>
        <text id="B2B" transform="translate(24.744 21)" fill="#070c1a" font-size="21" font-family="Lato-Bold, Lato" font-weight="700"><tspan x="0" y="0">B2B</tspan></text>
      </g>
    </g>
    <g id="Group_3592" data-name="Group 3592" transform="translate(628.754 328.77)">
      <g id="Group_3591" data-name="Group 3591" clip-path="url(#clip-path)">
        <path id="Path_2352" data-name="Path 2352" d="M90.192,4.245C124.149,2.078,158.269,1.153,192.317.719c71.145-.906,142.7.826,213.292,8.4,21.918,2.352,43.837,4.89,65.449,8.706,9.484,1.674,19.775,3.022,29.335,5.335,7.373,1.784,24.134,5.819,27.491,12.273,8.914,17.152-92.052,24.474-104.654,25.429-39.383,2.982-78.716,5.5-118.251,6.841q-58.519,1.988-117.119,1.639c-34.464-.237-68.98-1.045-103.335-3.368-22.7-1.533-46.749-2.949-68.485-8.868C7.67,54.831-5.415,50.151,3.47,42.24c3.567-3.176,9.052-5.288,13.739-7.121C119.47-4.884,237.3,7.5,237.3,7.5" transform="translate(-0.071 -0.154)" fill="none" stroke="#070c1a" stroke-width="1"/>
      </g>
    </g>
  </g>
</svg>
