<svg xmlns="http://www.w3.org/2000/svg" width="21" height="21" viewBox="0 0 21 21">
    <defs>
        <radialGradient id="vilxrsvjma" cx=".5" cy=".5" r=".659" gradientUnits="objectBoundingBox">
            <stop offset="0" stop-color="#4c48ff"/>
            <stop offset=".239" stop-color="#504dff"/>
            <stop offset=".531" stop-color="#5e5cff"/>
            <stop offset=".849" stop-color="#7574ff"/>
            <stop offset="1" stop-color="#8383ff"/>
        </radialGradient>
    </defs>
    <g data-name="Group 3298">
        <g data-name="Group 3297">
            <path data-name="Path 2164" d="M412.409 1212.773a2.451 2.451 0 0 0-2.116-2.116 25.779 25.779 0 0 0-7.272.146 4.1 4.1 0 0 0-1.852.787 52.152 52.152 0 0 0-9.046 8.885 2.415 2.415 0 0 0 .044 3.05q1.654 1.994 3.518 3.861t3.856 3.514a2.422 2.422 0 0 0 3.054.049 52.833 52.833 0 0 0 4.379-3.914 51.58 51.58 0 0 0 4.457-5.073 4.315 4.315 0 0 0 .836-1.911 25.666 25.666 0 0 0 .142-7.278zm-5.739 4.59-.659.655a2.636 2.636 0 0 1 .572 1.945 2.966 2.966 0 0 1-.44 1.187.8.8 0 0 1-1.339-.87 1.733 1.733 0 0 0 .263-.709 1.218 1.218 0 0 0-.376-1.056 1.365 1.365 0 0 0-.945-.454 1.3 1.3 0 0 0-.948.445 1.2 1.2 0 0 0-.4.9 3.348 3.348 0 0 0 .381 1.313 10.439 10.439 0 0 1 .533 1.344 3.4 3.4 0 0 1 .146 1 2.36 2.36 0 0 1-.2.914 2.782 2.782 0 0 1-.606.86 2.467 2.467 0 0 1-1.764.8 3.022 3.022 0 0 1-1.925-.767l-.538.537a.525.525 0 1 1-.742-.742l.532-.538a3.008 3.008 0 0 1-.758-2.082 2.656 2.656 0 0 1 .381-1.212.8.8 0 0 1 1.476.43.818.818 0 0 1-.112.406 1.566 1.566 0 0 0-.239.735 1.541 1.541 0 0 0 .518 1.163 1.645 1.645 0 0 0 1.065.552 1.253 1.253 0 0 0 .962-.405 1.279 1.279 0 0 0 .406-.909 3.133 3.133 0 0 0-.376-1.3 9.265 9.265 0 0 1-.528-1.3 2.625 2.625 0 0 1 .64-2.82 2.5 2.5 0 0 1 1.745-.8 2.845 2.845 0 0 1 1.872.683l.65-.645a.525.525 0 0 1 .743 0 .525.525 0 0 1 0 .745zm3.289-2.278a1.4 1.4 0 1 1 0-1.974 1.4 1.4 0 0 1 0 1.974z" transform="translate(-391.603 -1210.468)" style="fill:url(#vilxrsvjma)"/>
        </g>
    </g>
</svg>
