<svg xmlns="http://www.w3.org/2000/svg" xmlns:xlink="http://www.w3.org/1999/xlink" width="20.998" height="20.996" viewBox="0 0 20.998 20.996">
    <defs>
        <radialGradient id="vw55avz0ta" cx=".515" cy=".49" r=".625" gradientTransform="matrix(.897 0 0 1 .052 0)" gradientUnits="objectBoundingBox">
            <stop offset="0" stop-color="#4c48ff"/>
            <stop offset="1" stop-color="#8383ff"/>
        </radialGradient>
        <radialGradient id="kckwhyiy8b" cx="-.019" cy=".419" r="1.815" gradientTransform="matrix(.635 0 0 1 .183 0)" gradientUnits="objectBoundingBox">
            <stop offset="0" stop-color="#fff"/>
            <stop offset="1" stop-color="#5957ff"/>
        </radialGradient>
        <radialGradient id="wo9spl8ytc" cx=".5" cy=".5" r="1.28" xlink:href="#vw55avz0ta"/>
        <radialGradient id="6ph1fpxszd" cx=".53" cy="1.242" r="1.219" gradientTransform="matrix(.551 0 0 1 .224 0)" xlink:href="#kckwhyiy8b"/>
    </defs>
    <g data-name="Group 3590" transform="translate(-925.099 -1302.933)">
        <path data-name="Path 2366" d="M946.1 1308.153a1.1 1.1 0 0 0-1.1-1.1h-16.784a3.117 3.117 0 0 0-3.117 3.116v12.594a3.117 3.117 0 0 0 3.117 3.117h13.448a3.117 3.117 0 0 0 3.117-3.116v-8.214a3.117 3.117 0 0 0-3.117-3.117h-13.277a1.1 1.1 0 0 1-1.1-1.1 1.1 1.1 0 0 1 1.1-1.1H945a1.1 1.1 0 0 0 1.1-1.1z" transform="translate(0 -1.96)" style="fill:url(#vw55avz0ta)"/>
        <path data-name="Rectangle 2798" d="M1.974 0h3.679a.564.564 0 0 1 .564.564v2.819a.564.564 0 0 1-.564.565H1.974A1.974 1.974 0 0 1 0 1.974 1.974 1.974 0 0 1 1.974 0z" transform="translate(939.877 1314.513)" style="fill:url(#kckwhyiy8b)"/>
        <circle data-name="Ellipse 2396" cx=".873" cy=".873" r=".873" transform="translate(940.77 1315.615)" style="fill:url(#wo9spl8ytc)"/>
        <path data-name="Path 2367" d="m945.118 1308.409-1.073 1.073h-10.656l2.261-2.261 2.253-2.257 1.885-1.885a.493.493 0 0 1 .7 0l1.885 1.885 2.257 2.257.489.49a.493.493 0 0 1 0 .7z" transform="translate(-3.938)" style="fill:url(#6ph1fpxszd)"/>
        <g data-name="Group 3589">
            <path data-name="Path 2368" d="M944 1326.973a.687.687 0 0 0-.192-.5 1.68 1.68 0 0 0-.64-.356 5.01 5.01 0 0 1-.7-.293 1.418 1.418 0 0 1-.829-1.317 1.356 1.356 0 0 1 .359-.971 1.533 1.533 0 0 1 .975-.452v-.492a.282.282 0 0 1 .282-.283.283.283 0 0 1 .283.283v.5a1.407 1.407 0 0 1 .957.525 1.553 1.553 0 0 1 .284.617.429.429 0 0 1-.42.516.429.429 0 0 1-.42-.336.92.92 0 0 0-.167-.367.656.656 0 0 0-.546-.258.738.738 0 0 0-.534.185.7.7 0 0 0-.192.53.662.662 0 0 0 .191.5 1.841 1.841 0 0 0 .646.354 5.432 5.432 0 0 1 .715.309 1.827 1.827 0 0 1 .438.326 1.28 1.28 0 0 1 .273.42 1.489 1.489 0 0 1 .1.559 1.328 1.328 0 0 1-.367.975 1.62 1.62 0 0 1-1.026.441v.411a.282.282 0 0 1-.283.282.282.282 0 0 1-.283-.282v-.407a1.627 1.627 0 0 1-1.083-.505 1.448 1.448 0 0 1-.315-.606.428.428 0 0 1 .42-.525.426.426 0 0 1 .415.324.775.775 0 0 0 .829.615.876.876 0 0 0 .617-.2.672.672 0 0 0 .212-.521z" transform="translate(-7.789 -9.205)" style="fill:#fafaff"/>
        </g>
    </g>
</svg>
