<svg xmlns="http://www.w3.org/2000/svg" width="1151.202" height="236.257" viewBox="0 0 1151.202 236.257">
  <g id="Group_3276" data-name="Group 3276" transform="translate(-2598.491 148.096)">
    <g id="Group_3272" data-name="Group 3272">
      <g id="Group_3265" data-name="Group 3265">
        <rect id="Rectangle_2623" data-name="Rectangle 2623" width="74.546" height="74.546" rx="6.594" transform="translate(2651.729 -115.719) rotate(-11.774)" fill="#fead01"/>
      </g>
      <g id="Group_3266" data-name="Group 3266">
        <rect id="Rectangle_2624" data-name="Rectangle 2624" width="74.546" height="74.546" rx="6.594" transform="translate(2668.894 -33.37) rotate(-11.774)" fill="#fead01"/>
      </g>
      <g id="Group_3267" data-name="Group 3267">
        <rect id="Rectangle_2625" data-name="Rectangle 2625" width="74.546" height="74.546" rx="6.594" transform="translate(2734.09 -132.886) rotate(-11.774)" fill="#fead01"/>
      </g>
      <g id="Group_3268" data-name="Group 3268">
        <rect id="Rectangle_2626" data-name="Rectangle 2626" width="74.546" height="74.546" rx="6.594" transform="translate(2751.256 -50.526) rotate(-11.774)" fill="#fead01"/>
      </g>
      <g id="Group_3269" data-name="Group 3269">
        <path id="Path_2149" data-name="Path 2149" d="M2660.02,31.888a5.235,5.235,0,0,1-5.117-4.166l-32.76-157.3a6.666,6.666,0,0,0-7.876-5.167,6.625,6.625,0,0,0-4.215,2.874,6.6,6.6,0,0,0-.95,5.011l2.577,12.363a5.233,5.233,0,0,1-4.055,6.19,5.231,5.231,0,0,1-6.189-4.055l-2.577-12.363a16.988,16.988,0,0,1,2.446-12.888,17.012,17.012,0,0,1,10.828-7.376,17.145,17.145,0,0,1,20.255,13.276l32.76,157.3a5.236,5.236,0,0,1-5.127,6.3Z" fill="#6c6cff"/>
      </g>
      <g id="Group_3270" data-name="Group 3270">
        <path id="Path_2150" data-name="Path 2150" d="M2705.643,61.936a5.233,5.233,0,0,1-1.063-10.355l145.535-30.334a5.232,5.232,0,0,1,2.135,10.244L2706.715,61.825A5.319,5.319,0,0,1,2705.643,61.936Z" fill="#6c6cff"/>
      </g>
      <g id="Group_3271" data-name="Group 3271">
        <path id="Path_2151" data-name="Path 2151" d="M2667.767,88.16a23.667,23.667,0,1,1,23.213-28.5h0a23.663,23.663,0,0,1-18.337,27.993A23.911,23.911,0,0,1,2667.767,88.16Zm.075-36.873a13.3,13.3,0,0,0-2.72.282A13.2,13.2,0,1,0,2680.736,61.8h0a13.21,13.21,0,0,0-12.894-10.509Z" fill="#070c1a"/>
      </g>
    </g>
    <path id="Path_2152" data-name="Path 2152" d="M3058.268-92.162,3024,18.192a6.371,6.371,0,0,1-6.085,4.482h-10.7a6.372,6.372,0,0,1-6.069-4.43l-24.652-77.077a55.614,55.614,0,0,1-1.98-7.26q-.495,2.063-.989,3.877t-1.073,3.383L2947.56,18.26a6.371,6.371,0,0,1-6.063,4.414h-10.8a6.37,6.37,0,0,1-6.086-4.486L2890.427-92.164a3.437,3.437,0,0,1,3.283-4.454h13.9a8.193,8.193,0,0,1,4.826,1.362,6.562,6.562,0,0,1,2.6,3.671l20.294,71.361q.66,2.642,1.279,5.733t1.279,6.476q.658-3.465,1.444-6.517t1.69-5.692l23.43-71.361a7.8,7.8,0,0,1,2.6-3.465,7.306,7.306,0,0,1,4.744-1.568h6.517a7.471,7.471,0,0,1,4.7,1.4,8.6,8.6,0,0,1,2.723,3.629l23.346,71.361a103.2,103.2,0,0,1,3.135,11.8q1.071-6.518,2.392-11.8l20.3-71.361a6.179,6.179,0,0,1,2.516-3.548,7.93,7.93,0,0,1,4.826-1.485h12.741A3.437,3.437,0,0,1,3058.268-92.162Z" fill="#070c1a"/>
    <path id="Path_2153" data-name="Path 2153" d="M3088.773-52.894a44.279,44.279,0,0,1,10.889-7.507,31.56,31.56,0,0,1,13.943-2.888,30.341,30.341,0,0,1,12.292,2.352,24.308,24.308,0,0,1,8.951,6.6,29.048,29.048,0,0,1,5.445,10.148,43.135,43.135,0,0,1,1.856,12.993V19.021a3.654,3.654,0,0,1-3.654,3.653h-13.07a3.654,3.654,0,0,1-3.653-3.653V-31.2q0-7.754-3.548-12t-10.807-4.249a21.223,21.223,0,0,0-9.9,2.392,35.52,35.52,0,0,0-8.745,6.518v57.56a3.654,3.654,0,0,1-3.654,3.653H3072.05a3.654,3.654,0,0,1-3.654-3.653V-96.264a3.653,3.653,0,0,1,3.654-3.653h13.069a3.653,3.653,0,0,1,3.654,3.653Z" fill="#070c1a"/>
    <path id="Path_2154" data-name="Path 2154" d="M3196.052-63.289a46.168,46.168,0,0,1,17.118,3.053,37.55,37.55,0,0,1,13.2,8.662,38.088,38.088,0,0,1,8.456,13.695,52.121,52.121,0,0,1,2.97,18.067,52.373,52.373,0,0,1-2.97,18.15,38.889,38.889,0,0,1-8.456,13.776,36.965,36.965,0,0,1-13.2,8.745,46.148,46.148,0,0,1-17.118,3.052,46.7,46.7,0,0,1-17.242-3.052,36.856,36.856,0,0,1-13.241-8.745,39.333,39.333,0,0,1-8.5-13.776,51.711,51.711,0,0,1-3.01-18.15,51.463,51.463,0,0,1,3.01-18.067,38.517,38.517,0,0,1,8.5-13.695,37.436,37.436,0,0,1,13.241-8.662A46.725,46.725,0,0,1,3196.052-63.289Zm0,71.526q10.559,0,15.633-7.1t5.073-20.789q0-13.693-5.073-20.872T3196.052-47.7q-10.727,0-15.881,7.218t-5.156,20.831q0,13.612,5.156,20.748T3196.052,8.237Z" fill="#070c1a"/>
    <path id="Path_2155" data-name="Path 2155" d="M3271.273-96.264V19.021a3.654,3.654,0,0,1-3.654,3.653h-13.07a3.654,3.654,0,0,1-3.654-3.653V-96.264a3.653,3.653,0,0,1,3.654-3.653h13.07A3.653,3.653,0,0,1,3271.273-96.264Z" fill="#070c1a"/>
    <path id="Path_2156" data-name="Path 2156" d="M3304.583-17.089a40.05,40.05,0,0,0,2.31,11.26,23.009,23.009,0,0,0,4.785,7.838,18.736,18.736,0,0,0,7.054,4.619,25.588,25.588,0,0,0,9.033,1.527A27.936,27.936,0,0,0,3336.3,7a39.9,39.9,0,0,0,6.271-2.557q2.679-1.4,4.7-2.558A7.893,7.893,0,0,1,3351.194.73a4.22,4.22,0,0,1,3.8,1.9l5.856,7.425a33.964,33.964,0,0,1-7.589,6.641,42.542,42.542,0,0,1-8.787,4.29,48.044,48.044,0,0,1-9.321,2.269,66.921,66.921,0,0,1-9.2.659,45.238,45.238,0,0,1-16.417-2.928,36.711,36.711,0,0,1-13.2-8.662,40.626,40.626,0,0,1-8.828-14.19,54.907,54.907,0,0,1-3.217-19.593,46.852,46.852,0,0,1,2.8-16.293,39.175,39.175,0,0,1,8.043-13.283,37.9,37.9,0,0,1,12.787-8.951,42.154,42.154,0,0,1,17.036-3.3,41.459,41.459,0,0,1,14.767,2.558,32.2,32.2,0,0,1,11.632,7.466,34.625,34.625,0,0,1,7.632,12.045,44.9,44.9,0,0,1,2.763,16.293q0,4.621-.99,6.228t-3.795,1.61Zm38.856-12.293a24.541,24.541,0,0,0-1.113-7.466,17.782,17.782,0,0,0-3.341-6.146,15.579,15.579,0,0,0-5.651-4.166,19.412,19.412,0,0,0-7.962-1.526q-8.828,0-13.9,5.032T3305-29.382Z" fill="#070c1a"/>
    <path id="Path_2157" data-name="Path 2157" d="M3426.134-45.469a5.431,5.431,0,0,1-1.732,1.856,4.473,4.473,0,0,1-2.31.536,7.27,7.27,0,0,1-3.176-.824q-1.692-.825-3.919-1.857a36.067,36.067,0,0,0-5.074-1.856,24.327,24.327,0,0,0-6.723-.825q-6.022,0-9.446,2.558a7.96,7.96,0,0,0-3.423,6.682,6.372,6.372,0,0,0,1.773,4.579,15.954,15.954,0,0,0,4.7,3.258,45.8,45.8,0,0,0,6.642,2.516q3.711,1.115,7.548,2.434t7.549,3.011a26.467,26.467,0,0,1,6.64,4.29,19.938,19.938,0,0,1,4.7,6.229,19.765,19.765,0,0,1,1.774,8.744,28.581,28.581,0,0,1-2.186,11.262A24.346,24.346,0,0,1,3423,16.033a30.543,30.543,0,0,1-10.6,5.858,46.05,46.05,0,0,1-14.561,2.1,46.121,46.121,0,0,1-8.539-.784,50.333,50.333,0,0,1-8-2.186,44.115,44.115,0,0,1-7.1-3.3q-1.672-.974-3.139-2.034a3.634,3.634,0,0,1-.937-4.824l3.045-5.021a6.664,6.664,0,0,1,2.145-2.146,6.021,6.021,0,0,1,3.135-.742,6.6,6.6,0,0,1,3.588,1.073q1.69,1.072,3.919,2.31a34.913,34.913,0,0,0,5.239,2.309,23.014,23.014,0,0,0,7.63,1.073,19.807,19.807,0,0,0,6.229-.866,13.168,13.168,0,0,0,4.29-2.269,8.526,8.526,0,0,0,2.475-3.259,9.775,9.775,0,0,0,.784-3.835,6.847,6.847,0,0,0-1.774-4.868,15.577,15.577,0,0,0-4.7-3.3,45.506,45.506,0,0,0-6.682-2.516q-3.756-1.115-7.673-2.433a70.777,70.777,0,0,1-7.672-3.094,26.112,26.112,0,0,1-6.682-4.5,20.3,20.3,0,0,1-4.7-6.682,23.288,23.288,0,0,1-1.775-9.569,24.363,24.363,0,0,1,2.063-9.9,23.2,23.2,0,0,1,6.064-8.209,30.108,30.108,0,0,1,9.982-5.61,41.586,41.586,0,0,1,13.818-2.1,42.3,42.3,0,0,1,15.922,2.888,37.932,37.932,0,0,1,9.484,5.4,3.662,3.662,0,0,1,.823,4.818Z" fill="#070c1a"/>
    <path id="Path_2158" data-name="Path 2158" d="M3443.261-50.172q14.6-13.364,35.144-13.364a34.37,34.37,0,0,1,13.282,2.433,28.105,28.105,0,0,1,9.9,6.765,28.984,28.984,0,0,1,6.146,10.354,39.8,39.8,0,0,1,2.1,13.2V22.674H3500.6a9.328,9.328,0,0,1-4.455-.866,6,6,0,0,1-2.475-3.506l-1.815-6.105a73.4,73.4,0,0,1-6.27,5.074,36.972,36.972,0,0,1-6.352,3.671,34.232,34.232,0,0,1-7.054,2.268,40.674,40.674,0,0,1-8.29.784,32.537,32.537,0,0,1-9.9-1.443,21.738,21.738,0,0,1-7.838-4.331,19.425,19.425,0,0,1-5.114-7.178,25.438,25.438,0,0,1-1.815-9.982,19.873,19.873,0,0,1,1.072-6.394A18.7,18.7,0,0,1,3443.8-11.4a29.2,29.2,0,0,1,6.311-5.444,41.09,41.09,0,0,1,9.529-4.455A82.357,82.357,0,0,1,3472.8-24.39a131.5,131.5,0,0,1,17.158-1.444v-4.95q0-8.5-3.629-12.581t-10.477-4.084a24.9,24.9,0,0,0-8.209,1.155,33.883,33.883,0,0,0-5.734,2.6q-2.473,1.445-4.5,2.6a8.88,8.88,0,0,1-4.5,1.155,5.867,5.867,0,0,1-3.629-1.114,9.269,9.269,0,0,1-2.393-2.6Zm46.693,36.713a112.457,112.457,0,0,0-14.849,1.525,39.592,39.592,0,0,0-9.652,2.847,12.666,12.666,0,0,0-5.2,4.042,8.775,8.775,0,0,0-1.568,5.033q0,5.362,3.177,7.672a13.757,13.757,0,0,0,8.29,2.31A24.177,24.177,0,0,0,3481,7.7a32.2,32.2,0,0,0,8.95-6.889Z" fill="#070c1a"/>
    <path id="Path_2159" data-name="Path 2159" d="M3546.927-96.264V19.021a3.654,3.654,0,0,1-3.654,3.653H3530.2a3.653,3.653,0,0,1-3.653-3.653V-96.264a3.652,3.652,0,0,1,3.653-3.653h13.07A3.653,3.653,0,0,1,3546.927-96.264Z" fill="#070c1a"/>
    <path id="Path_2160" data-name="Path 2160" d="M3580.237-17.089a40.041,40.041,0,0,0,2.31,11.26,23.009,23.009,0,0,0,4.785,7.838,18.736,18.736,0,0,0,7.054,4.619,25.586,25.586,0,0,0,9.033,1.527A27.936,27.936,0,0,0,3611.957,7a39.9,39.9,0,0,0,6.271-2.557q2.679-1.4,4.7-2.558A7.892,7.892,0,0,1,3626.848.73a4.22,4.22,0,0,1,3.8,1.9l5.856,7.425a33.965,33.965,0,0,1-7.589,6.641,42.534,42.534,0,0,1-8.787,4.29,48.044,48.044,0,0,1-9.321,2.269,66.923,66.923,0,0,1-9.2.659,45.238,45.238,0,0,1-16.417-2.928,36.711,36.711,0,0,1-13.2-8.662,40.63,40.63,0,0,1-8.828-14.19,54.907,54.907,0,0,1-3.217-19.593,46.846,46.846,0,0,1,2.8-16.293,39.175,39.175,0,0,1,8.043-13.283,37.9,37.9,0,0,1,12.787-8.951,42.156,42.156,0,0,1,17.036-3.3,41.459,41.459,0,0,1,14.767,2.558,32.213,32.213,0,0,1,11.633,7.466,34.637,34.637,0,0,1,7.631,12.045,44.9,44.9,0,0,1,2.763,16.293q0,4.621-.99,6.228t-3.795,1.61Zm38.856-12.293a24.548,24.548,0,0,0-1.113-7.466,17.779,17.779,0,0,0-3.341-6.146,15.567,15.567,0,0,0-5.651-4.166,19.413,19.413,0,0,0-7.962-1.526q-8.827,0-13.9,5.032t-6.477,14.272Z" fill="#070c1a"/>
    <g id="Group_3275" data-name="Group 3275">
      <g id="Group_3273" data-name="Group 3273">
        <path id="Path_2161" data-name="Path 2161" d="M3688.634-47.294l11.446,16.035-5.506,7.711-30.022,42.066a9.909,9.909,0,0,1-8.065,4.153h-14.293a2.742,2.742,0,0,1-2.232-4.335l42.249-59.206,5.505-7.711Z" fill="#6c6cff"/>
        <path id="Path_2162" data-name="Path 2162" d="M3743.61-92.286l-29.216,40.959a2.4,2.4,0,0,1-3.916,0l-7.19-10.085a7.748,7.748,0,0,1,0-9l15.731-22.054a9.9,9.9,0,0,1,8.067-4.155h14.292A2.741,2.741,0,0,1,3743.61-92.286Z" fill="#6c6cff"/>
      </g>
      <g id="Group_3274" data-name="Group 3274">
        <path id="Path_2163" data-name="Path 2163" d="M3746.947,22.671h-14.292a9.908,9.908,0,0,1-8.066-4.154l-30.015-42.065L3682.211-40.87l-36.68-51.415a2.742,2.742,0,0,1,2.232-4.334h14.294a9.909,9.909,0,0,1,8.065,4.153L3694.574-58.2l12.356,17.33,42.249,59.206A2.742,2.742,0,0,1,3746.947,22.671Z" fill="#6c6cff"/>
      </g>
    </g>
  </g>
</svg>
